<svg width="29" height="28" viewBox="0 0 29 28" fill="none" xmlns="http://www.w3.org/2000/svg">
<g id="Iconsax/Bold/add">
<path id="Vector" d="M19.6409 2.33203H9.86427C5.6176 2.33203 3.08594 4.8637 3.08594 9.11036V18.8754C3.08594 23.1337 5.6176 25.6654 9.86427 25.6654H19.6293C23.8759 25.6654 26.4076 23.1337 26.4076 18.887V9.11036C26.4193 4.8637 23.8876 2.33203 19.6409 2.33203ZM21.7526 14.8737H15.6276V20.9987C15.6276 21.477 15.2309 21.8737 14.7526 21.8737C14.2743 21.8737 13.8776 21.477 13.8776 20.9987V14.8737H7.7526C7.27427 14.8737 6.8776 14.477 6.8776 13.9987C6.8776 13.5204 7.27427 13.1237 7.7526 13.1237H13.8776V6.9987C13.8776 6.52036 14.2743 6.1237 14.7526 6.1237C15.2309 6.1237 15.6276 6.52036 15.6276 6.9987V13.1237H21.7526C22.2309 13.1237 22.6276 13.5204 22.6276 13.9987C22.6276 14.477 22.2309 14.8737 21.7526 14.8737Z" fill="#104960"/>
</g>
</svg>
