<svg width="618" height="453" viewBox="0 0 618 453" fill="none" xmlns="http://www.w3.org/2000/svg">
<path opacity="0.0845424" d="M557.872 137.679C565.63 127.312 580.319 125.2 590.682 132.961C600.94 140.645 603.112 155.126 595.627 165.473L595.397 165.786L533.929 247.927C526.099 258.389 511.559 261.042 500.556 254.079L500.223 253.865L461.527 228.527L422.511 285.376C415.257 295.945 400.884 298.709 390.243 291.651L389.922 291.434C379.357 284.177 376.594 269.798 383.65 259.152L383.866 258.831L434.993 184.335C442.61 173.237 457.619 170.179 468.953 177.344L469.295 177.564L508.711 203.373L557.872 137.679Z" fill="#104960"/>
<path opacity="0.0845424" d="M356.668 4.38439C358.635 1.52361 362.553 0.796034 365.419 2.7593C368.248 4.69673 368.995 8.53064 367.124 11.3805L367.047 11.494L351.729 33.7712C349.483 36.9106 345.137 37.6668 341.964 35.4951L341.851 35.4163L333.053 29.1465L323.518 44.2679C321.69 47.1662 317.881 48.0633 314.953 46.3091L314.838 46.2384C311.934 44.4143 311.035 40.612 312.793 37.69L312.864 37.5751L325.509 17.522C327.592 14.2185 331.964 13.226 335.274 15.3052L335.447 15.4175L335.617 15.5348L344.599 21.9363L356.668 4.38439Z" fill="#104960"/>
<path opacity="0.070266" fill-rule="evenodd" clip-rule="evenodd" d="M526.088 106.673V91.7848H540.971C542.113 91.7848 543.039 90.8579 543.039 89.7144V82.5469C543.039 81.4035 542.113 80.4765 540.971 80.4765H526.088V65.479C526.088 64.3355 525.162 63.4086 524.02 63.4086H516.744C515.601 63.4086 514.675 64.3355 514.675 65.479V80.4765H499.793C498.651 80.4765 497.725 81.4035 497.725 82.5469V89.7144C497.725 90.8579 498.651 91.7848 499.793 91.7848H514.675V106.673C514.675 107.816 515.601 108.743 516.744 108.743H524.02C525.162 108.743 526.088 107.816 526.088 106.673Z" fill="#25A9E0"/>
<path opacity="0.0739397" fill-rule="evenodd" clip-rule="evenodd" d="M76.611 18.2194C118.466 18.2194 152.396 52.1642 152.396 94.0373C152.396 135.91 118.466 169.855 76.611 169.855C34.7562 169.855 0.826172 135.91 0.826172 94.0373C0.826172 52.1642 34.7562 18.2194 76.611 18.2194ZM76.611 55.7375C55.4678 55.7375 38.3279 72.8849 38.3279 94.0373C38.3279 115.19 55.4678 132.337 76.611 132.337C97.7541 132.337 114.894 115.19 114.894 94.0373C114.894 72.8849 97.7541 55.7375 76.611 55.7375Z" fill="#25A9E0"/>
<path fill-rule="evenodd" clip-rule="evenodd" d="M64.1962 72.0493H453.138C460.448 72.0493 466.375 77.9817 466.375 85.2998V254.429C466.375 261.747 460.448 267.679 453.138 267.679H64.1962C56.8856 267.679 50.9592 261.747 50.9592 254.429V85.2998C50.9592 77.9817 56.8856 72.0493 64.1962 72.0493Z" fill="#E7FCFF"/>
<path opacity="0.383371" fill-rule="evenodd" clip-rule="evenodd" d="M70.443 72.0493H453.138C460.448 72.0493 466.375 77.9817 466.375 85.2998V254.429C466.375 261.747 460.448 267.679 453.138 267.679H70.443C63.1324 267.679 57.2061 261.747 57.2061 254.429V85.2998C57.2061 77.9817 63.1324 72.0493 70.443 72.0493Z" fill="#25A9E0"/>
<path fill-rule="evenodd" clip-rule="evenodd" d="M71.726 78.3094H451.855C456.424 78.3094 460.128 82.0172 460.128 86.591V253.138C460.128 257.712 456.424 261.419 451.855 261.419H71.726C67.1569 261.419 63.4529 257.712 63.4529 253.138V86.591C63.4529 82.0172 67.1569 78.3094 71.726 78.3094Z" fill="#E7FCFF"/>
<path fill-rule="evenodd" clip-rule="evenodd" d="M233.177 244.986H290.403C293.145 244.986 295.367 247.211 295.367 249.955V261.419H228.214V249.955C228.214 247.211 230.436 244.986 233.177 244.986Z" fill="#D4EFFF"/>
<path fill-rule="evenodd" clip-rule="evenodd" d="M239.424 244.986H296.65C299.392 244.986 301.614 247.211 301.614 249.955V267.679H234.46V249.955C234.46 247.211 236.683 244.986 239.424 244.986Z" fill="#25A9E0"/>
<g filter="url(#filter0_dd_2_6767)">
<path d="M79.6239 86.1346H183.057C185.519 86.1346 187.515 88.1327 187.515 90.5974V124.262C187.515 126.727 185.519 128.725 183.057 128.725H79.6239C77.1618 128.725 75.1658 126.727 75.1658 124.262V90.5974C75.1658 88.1327 77.1618 86.1346 79.6239 86.1346Z" fill="black"/>
</g>
<path d="M79.6239 86.1346H183.057C185.519 86.1346 187.515 88.1327 187.515 90.5974V124.262C187.515 126.727 185.519 128.725 183.057 128.725H79.6239C77.1618 128.725 75.1658 126.727 75.1658 124.262V90.5974C75.1658 88.1327 77.1618 86.1346 79.6239 86.1346Z" fill="white"/>
<path opacity="0.454078" fill-rule="evenodd" clip-rule="evenodd" d="M109.671 110.171H130.708C131.406 110.171 131.972 110.737 131.972 111.436C131.972 112.134 131.406 112.701 130.708 112.701H109.671C108.974 112.701 108.408 112.134 108.408 111.436C108.408 110.737 108.974 110.171 109.671 110.171Z" fill="#C7C1FF"/>
<path fill-rule="evenodd" clip-rule="evenodd" d="M109.671 103.002H122.292C122.99 103.002 123.556 103.568 123.556 104.267C123.556 104.966 122.99 105.532 122.292 105.532H109.671C108.974 105.532 108.408 104.966 108.408 104.267C108.408 103.568 108.974 103.002 109.671 103.002Z" fill="#104960"/>
<path fill-rule="evenodd" clip-rule="evenodd" d="M170.271 101.27C172.066 98.9058 175.433 98.4479 177.792 100.247C178.335 100.661 178.794 101.174 179.145 101.76C179.325 102.062 179.228 102.454 178.926 102.635C178.625 102.816 178.234 102.718 178.053 102.416C177.786 101.969 177.436 101.577 177.022 101.262C175.259 99.9171 172.757 100.225 171.369 101.933L171.283 102.042L169.31 104.64C166.229 108.698 161.014 110.487 156.108 109.191L155.897 109.133L154.31 108.684C154.208 108.655 154.105 108.629 154.001 108.607C151.099 107.966 148.227 109.764 147.517 112.638L147.483 112.78L147.156 114.269C147.04 114.796 146.816 115.293 146.496 115.727C145.234 117.446 142.821 117.815 141.105 116.55C140.822 116.341 140.762 115.942 140.97 115.659C141.178 115.375 141.576 115.314 141.859 115.523C143.009 116.37 144.626 116.124 145.471 114.972C145.659 114.717 145.797 114.43 145.881 114.126L145.913 113.994L146.241 112.505C147.042 108.862 150.639 106.558 154.275 107.361L154.466 107.406L154.656 107.457L156.243 107.906C160.64 109.149 165.344 107.615 168.169 104.034L168.298 103.868L170.271 101.27Z" fill="#104960"/>
<path fill-rule="evenodd" clip-rule="evenodd" d="M164.537 100.499C165.836 97.6032 169.232 96.3113 172.121 97.6132C172.702 97.8748 173.235 98.2313 173.698 98.6682C174.79 99.6966 175.8 101.322 176.748 103.548C176.886 103.872 176.735 104.246 176.412 104.384C176.089 104.523 175.715 104.372 175.577 104.048C174.693 101.971 173.77 100.486 172.827 99.5972C172.466 99.2572 172.051 98.9798 171.599 98.7762C169.392 97.7815 166.804 98.7326 165.754 100.9L165.697 101.022L165.288 101.934C165.193 102.147 165.083 102.352 164.96 102.55C163.448 104.982 160.256 105.725 157.829 104.21C157.54 104.029 157.223 103.898 156.892 103.822C155.277 103.452 153.668 104.432 153.243 106.022L153.215 106.134L152.507 109.232C152.293 110.166 151.84 111.028 151.193 111.732C149.174 113.93 145.784 114.107 143.549 112.16L143.43 112.054L140.546 109.392C140.287 109.154 140.271 108.75 140.509 108.491C140.731 108.25 141.096 108.219 141.354 108.41L141.407 108.454L144.292 111.115C146.007 112.698 148.678 112.587 150.257 110.869C150.716 110.369 151.048 109.766 151.225 109.112L151.266 108.948L151.975 105.849C152.51 103.507 154.838 102.043 157.176 102.579C157.586 102.674 157.981 102.827 158.347 103.035L158.502 103.128C160.332 104.27 162.74 103.71 163.88 101.876C163.942 101.776 163.999 101.674 164.052 101.57L164.127 101.411L164.537 100.499Z" fill="#C7C1FF"/>
<path d="M93.8907 116.496C98.6548 116.496 102.517 112.625 102.517 107.851C102.517 103.077 98.6548 99.2068 93.8907 99.2068C89.1267 99.2068 85.2646 103.077 85.2646 107.851C85.2646 112.625 89.1267 116.496 93.8907 116.496Z" fill="#104960"/>
<mask id="mask0_2_6767" style="mask-type:alpha" maskUnits="userSpaceOnUse" x="75" y="134" width="140" height="119">
<path d="M79.3023 134.651H210.802C213.087 134.651 214.939 136.505 214.939 138.792V248.671C214.939 250.958 213.087 252.812 210.802 252.812H79.3023C77.0178 252.812 75.1658 250.958 75.1658 248.671V138.792C75.1658 136.505 77.0178 134.651 79.3023 134.651Z" fill="white"/>
</mask>
<g mask="url(#mask0_2_6767)">
<g filter="url(#filter1_dd_2_6767)">
<path d="M79.3023 134.651H210.802C213.087 134.651 214.939 136.505 214.939 138.792V248.671C214.939 250.958 213.087 252.812 210.802 252.812H79.3023C77.0178 252.812 75.1658 250.958 75.1658 248.671V138.792C75.1658 136.505 77.0178 134.651 79.3023 134.651Z" fill="black"/>
</g>
<path d="M79.3023 134.651H210.802C213.087 134.651 214.939 136.505 214.939 138.792V248.671C214.939 250.958 213.087 252.812 210.802 252.812H79.3023C77.0178 252.812 75.1658 250.958 75.1658 248.671V138.792C75.1658 136.505 77.0178 134.651 79.3023 134.651Z" fill="white"/>
<g filter="url(#filter2_f_2_6767)">
<path d="M93.9062 225.423C104.984 222.235 112.965 217.388 117.849 210.88C125.176 201.119 127.646 191.658 140.247 191.658C152.849 191.658 154.464 206.149 168.086 206.149C181.708 206.149 182.453 187.67 186.981 180.332C189.999 175.44 194.113 172.995 199.322 172.995" fill="black"/>
</g>
<path d="M93.9062 225.423C104.984 222.235 112.965 217.388 117.849 210.88C125.176 201.119 127.646 191.658 140.247 191.658C152.849 191.658 154.464 206.149 168.086 206.149C181.708 206.149 182.453 187.67 186.981 180.332C189.999 175.44 194.113 172.995 199.322 172.995" stroke="#8EEAF6" stroke-width="4.004" stroke-linecap="round"/>
<path opacity="0.414737" fill-rule="evenodd" clip-rule="evenodd" d="M93.9062 224.415C104.984 221.24 112.965 216.413 117.849 209.934C125.176 200.215 127.646 190.795 140.247 190.795C152.849 190.795 154.464 205.223 168.086 205.223C181.708 205.223 182.453 186.824 186.981 179.518C189.999 174.647 194.113 172.212 199.322 172.212V233.828C199.322 235.237 198.181 236.379 196.774 236.379H96.4544C95.0471 236.379 93.9062 235.237 93.9062 233.828V224.415Z" fill="#CEF9FF"/>
<path d="M129.826 146.389H86.0977V151.084H129.826V146.389Z" fill="#8EEAF6"/>
<path fill-rule="evenodd" clip-rule="evenodd" d="M88.4428 158.127H104.055C105.35 158.127 106.4 159.178 106.4 160.474C106.4 161.771 105.35 162.822 104.055 162.822H88.4428C87.1476 162.822 86.0977 161.771 86.0977 160.474C86.0977 159.178 87.1476 158.127 88.4428 158.127Z" fill="#8EEAF6" fill-opacity="0.401934"/>
<path fill-rule="evenodd" clip-rule="evenodd" d="M187.999 151.866C189.509 151.866 190.732 150.64 190.732 149.128C190.732 147.615 189.509 146.389 187.999 146.389C186.49 146.389 185.266 147.615 185.266 149.128C185.266 150.64 186.49 151.866 187.999 151.866Z" fill="#8EEAF6" fill-opacity="0.451705"/>
<path fill-rule="evenodd" clip-rule="evenodd" d="M195.808 151.866C197.317 151.866 198.541 150.64 198.541 149.128C198.541 147.615 197.317 146.389 195.808 146.389C194.299 146.389 193.075 147.615 193.075 149.128C193.075 150.64 194.299 151.866 195.808 151.866Z" fill="#8EEAF6" fill-opacity="0.451705"/>
<path fill-rule="evenodd" clip-rule="evenodd" d="M203.617 151.866C205.126 151.866 206.35 150.64 206.35 149.128C206.35 147.615 205.126 146.389 203.617 146.389C202.107 146.389 200.884 147.615 200.884 149.128C200.884 150.64 202.107 151.866 203.617 151.866Z" fill="#8EEAF6" fill-opacity="0.451705"/>
</g>
<g filter="url(#filter3_d_2_6767)">
<path d="M242.995 97.09H429.315C432.735 97.09 435.507 99.865 435.507 103.288V227.938C435.507 231.362 432.735 234.137 429.315 234.137H242.995C239.575 234.137 236.803 231.362 236.803 227.938V103.288C236.803 99.865 239.575 97.09 242.995 97.09Z" fill="black"/>
</g>
<path d="M242.995 97.09H429.315C432.735 97.09 435.507 99.865 435.507 103.288V227.938C435.507 231.362 432.735 234.137 429.315 234.137H242.995C239.575 234.137 236.803 231.362 236.803 227.938V103.288C236.803 99.865 239.575 97.09 242.995 97.09Z" fill="white"/>
<path fill-rule="evenodd" clip-rule="evenodd" d="M270.407 167.37V216.386H263.102V167.37H270.407Z" fill="#E7E4FF"/>
<path fill-rule="evenodd" clip-rule="evenodd" d="M270.407 179.084V216.386H263.102V179.084H270.407Z" fill="#C7C1FF"/>
<path fill-rule="evenodd" clip-rule="evenodd" d="M270.407 202.51V216.386H263.102V202.51H270.407Z" fill="#104960"/>
<path fill-rule="evenodd" clip-rule="evenodd" d="M287.94 155.657V216.386H280.635V155.657H287.94Z" fill="#E7E4FF"/>
<path fill-rule="evenodd" clip-rule="evenodd" d="M287.94 173.227V216.386H280.635V173.227H287.94Z" fill="#C7C1FF"/>
<path fill-rule="evenodd" clip-rule="evenodd" d="M287.94 202.51V216.386H280.635V202.51H287.94Z" fill="#104960"/>
<path fill-rule="evenodd" clip-rule="evenodd" d="M305.473 164.442V216.386H298.167V164.442H305.473Z" fill="#E7E4FF"/>
<path fill-rule="evenodd" clip-rule="evenodd" d="M305.473 182.012V216.386H298.167V182.012H305.473Z" fill="#C7C1FF"/>
<path fill-rule="evenodd" clip-rule="evenodd" d="M305.473 205.439V216.386H298.167V205.439H305.473Z" fill="#104960"/>
<path fill-rule="evenodd" clip-rule="evenodd" d="M323.005 149.8V216.386H315.7V149.8H323.005Z" fill="#E7E4FF"/>
<path fill-rule="evenodd" clip-rule="evenodd" d="M323.005 167.37V216.386H315.7V167.37H323.005Z" fill="#C7C1FF"/>
<path fill-rule="evenodd" clip-rule="evenodd" d="M323.005 190.797V216.386H315.7V190.797H323.005Z" fill="#104960"/>
<path fill-rule="evenodd" clip-rule="evenodd" d="M340.538 138.087V216.386H333.233V138.087H340.538Z" fill="#E7E4FF"/>
<path fill-rule="evenodd" clip-rule="evenodd" d="M340.538 161.514V216.386H333.233V161.514H340.538Z" fill="#C7C1FF"/>
<path fill-rule="evenodd" clip-rule="evenodd" d="M340.538 196.654V216.386H333.233V196.654H340.538Z" fill="#104960"/>
<path fill-rule="evenodd" clip-rule="evenodd" d="M358.071 155.657V216.386H350.766V155.657H358.071Z" fill="#E7E4FF"/>
<path fill-rule="evenodd" clip-rule="evenodd" d="M358.071 173.227V216.386H350.766V173.227H358.071Z" fill="#C7C1FF"/>
<path fill-rule="evenodd" clip-rule="evenodd" d="M358.071 200.168V216.386H350.766V200.168H358.071Z" fill="#104960"/>
<path fill-rule="evenodd" clip-rule="evenodd" d="M375.604 161.514V216.386H368.298V161.514H375.604Z" fill="#E7E4FF"/>
<path fill-rule="evenodd" clip-rule="evenodd" d="M375.604 173.227V216.386H368.298V173.227H375.604Z" fill="#C7C1FF"/>
<path fill-rule="evenodd" clip-rule="evenodd" d="M375.604 196.068V216.386H368.298V196.068H375.604Z" fill="#104960"/>
<path fill-rule="evenodd" clip-rule="evenodd" d="M393.136 149.8V216.386H385.831V149.8H393.136Z" fill="#E7E4FF"/>
<path fill-rule="evenodd" clip-rule="evenodd" d="M393.136 173.227V216.386H385.831V173.227H393.136Z" fill="#C7C1FF"/>
<path fill-rule="evenodd" clip-rule="evenodd" d="M393.136 201.925V216.386H385.831V201.925H393.136Z" fill="#104960"/>
<path fill-rule="evenodd" clip-rule="evenodd" d="M410.669 161.514V216.386H403.364V161.514H410.669Z" fill="#E7E4FF"/>
<path fill-rule="evenodd" clip-rule="evenodd" d="M410.669 173.227V216.386H403.364V173.227H410.669Z" fill="#C7C1FF"/>
<path fill-rule="evenodd" clip-rule="evenodd" d="M410.669 201.925V216.386H403.364V201.925H410.669Z" fill="#104960"/>
<path opacity="0.57573" fill-rule="evenodd" clip-rule="evenodd" d="M262.52 120.517H320.958C321.928 120.517 322.713 121.303 322.713 122.274C322.713 123.244 321.928 124.031 320.958 124.031H262.52C261.55 124.031 260.764 123.244 260.764 122.274C260.764 121.303 261.55 120.517 262.52 120.517Z" fill="#104960"/>
<path d="M293.492 110.56H260.764V114.074H293.492V110.56Z" fill="#104960"/>
<path fill-rule="evenodd" clip-rule="evenodd" d="M462.499 374.228L471.966 449.099L467.002 449.033L457.535 374.929L462.499 374.228Z" fill="#BFE7FF"/>
<path fill-rule="evenodd" clip-rule="evenodd" d="M390.632 378.175C390.632 373.855 394.13 370.353 398.446 370.353H429.687C434.42 370.353 438.376 366.747 438.82 362.03L443.815 308.868C444.258 304.151 448.214 300.545 452.948 300.545H472.555C477.621 300.545 481.728 304.657 481.728 309.728C481.728 309.963 481.719 310.197 481.701 310.431L476.552 377.518C476.185 382.302 472.199 385.997 467.406 385.997H398.446C394.13 385.997 390.632 382.495 390.632 378.175Z" fill="#25A9E0"/>
<path fill-rule="evenodd" clip-rule="evenodd" d="M472.345 300.545C472.821 300.545 473.288 300.582 473.744 300.652C473.818 301.117 473.855 301.594 473.855 302.079C473.855 302.315 473.846 302.55 473.828 302.785L468.683 369.632C468.314 374.415 464.329 378.109 459.536 378.109H390.762L390.633 378.108C390.632 378.057 390.632 378.007 390.632 377.956C390.632 373.647 394.121 370.154 398.425 370.154H429.574C434.306 370.154 438.262 366.55 438.706 361.834L443.697 308.866C444.142 304.149 448.098 300.545 452.83 300.545H472.345Z" fill="#BFE7FF"/>
<path fill-rule="evenodd" clip-rule="evenodd" d="M451.938 287.651C462.03 285.297 462.695 271.424 455.022 266.611C462.935 249.999 444.637 233.505 432.103 243.677C423.886 240.154 417.058 253.9 424.704 264.577C421.498 282.908 428.022 287.646 439.784 287.848L451.938 287.651Z" fill="#422851"/>
<path fill-rule="evenodd" clip-rule="evenodd" d="M451.813 284.338C451.813 284.338 446.904 283.183 446.733 275.127C446.563 267.071 446.683 264.321 446.683 264.321L435.869 264.125C435.869 264.125 435.751 273.104 435.75 276.352C435.745 285.074 429.677 284.338 429.677 284.338C429.677 284.338 430.938 291.41 440.736 291.962C448.387 292.394 451.813 284.338 451.813 284.338Z" fill="url(#paint0_linear_2_6767)"/>
<path fill-rule="evenodd" clip-rule="evenodd" d="M449.203 260.298C454.027 260.111 453.24 267.183 448.229 267.174C448.229 267.174 445.319 277.221 435.214 277.221C427.008 277.221 426.474 265.511 426.399 263.175C426.319 260.684 426.309 252.501 426.309 252.501L449.391 252.49L449.203 260.298Z" fill="url(#paint1_linear_2_6767)"/>
<path d="M437.162 270.471C437.162 270.471 434.755 272.512 431.968 270.601" stroke="#F77B7B" stroke-width="1.5" stroke-linecap="round"/>
<path d="M435.573 272.835C434.825 273.181 434.104 273.206 433.46 272.861" stroke="#F49494" stroke-linecap="round"/>
<path d="M448.712 264.101C448.662 262.967 449.008 262.066 450.163 261.885" stroke="#F77B7B" stroke-linecap="round"/>
<path fill-rule="evenodd" clip-rule="evenodd" d="M449.967 259.424C449.967 259.424 447.323 262.977 446.787 262.996C446.251 263.015 446.064 258.375 446.064 258.375C442.821 258.126 434.612 256.489 432.6 252.675C431.193 256.041 428.503 257.535 426.736 257.248L426.401 264.398L425.576 250.025H450.613L449.967 259.424Z" fill="#422851"/>
<path fill-rule="evenodd" clip-rule="evenodd" d="M402.407 426.409C402.407 426.409 406.734 435.163 403.187 437.922C399.634 440.681 390.249 445.851 390.249 445.851L415.112 444.286L409.586 425.194L402.407 426.409Z" fill="url(#paint2_linear_2_6767)"/>
<path fill-rule="evenodd" clip-rule="evenodd" d="M412.707 434.74C411.48 434.884 412.791 439.021 410.134 439.336C407.483 439.65 406.194 435.73 403.185 436.973C400.176 438.216 389.203 444.641 388.771 447.267C388.334 449.893 392.422 450.666 398.029 450.073C403.636 449.48 404.669 447.482 408.878 448.287C413.082 449.091 416.231 447.809 416.092 444.733C415.954 441.657 413.934 434.597 412.707 434.74Z" fill="#222D4E"/>
<path fill-rule="evenodd" clip-rule="evenodd" d="M401.813 437.61L402.359 438.43C402.612 438.811 402.509 439.325 402.129 439.579C402.111 439.591 402.093 439.602 402.074 439.613L394.656 443.759C394.416 443.893 394.124 443.899 393.879 443.774L392.727 443.189C394.536 441.877 396.014 440.891 397.648 439.923C398.903 439.18 400.292 438.414 401.813 437.61Z" fill="white" fill-opacity="0.540975"/>
<path fill-rule="evenodd" clip-rule="evenodd" d="M439.861 349.253C432.333 349.59 390.439 358.87 382.827 360.447C375.216 362.024 368.781 370.556 374.585 380.435C381.104 391.525 397.924 423.02 402.008 430.12C404.029 433.634 414.226 431.664 411.831 425.766C407.366 414.771 405.292 387.149 393.908 377.078C393.908 377.078 432.193 383.752 448.731 376.107C460.75 370.551 458.031 348.439 439.861 349.253Z" fill="url(#paint3_linear_2_6767)"/>
<path fill-rule="evenodd" clip-rule="evenodd" d="M386.527 304.672C386.527 304.672 386.612 298.538 384.469 295.332C382.327 292.126 382.242 288.721 380.62 288.832C378.999 288.944 380.604 296.859 380.604 296.859C380.604 296.859 378.547 296.071 377.069 295.076C375.591 294.08 371.11 289.171 370.062 290.041C368.287 291.523 371.147 299.884 372.705 301.555C374.268 303.227 382.805 308.725 382.805 308.725L386.527 304.672Z" fill="url(#paint4_linear_2_6767)"/>
<path fill-rule="evenodd" clip-rule="evenodd" d="M432.784 300.996C429.283 309.13 422.871 324.073 420.228 328.531C416.916 334.114 411.693 336.574 405.577 332.431C399.151 328.079 381.457 311.102 380.938 307.256C380.424 303.411 384.755 298.797 388.674 301.186C392.592 303.574 408.875 317.146 408.875 317.146C408.875 317.146 415.446 300.275 420.733 290.501C425.311 282.046 438.114 288.63 432.784 300.996Z" fill="#104960"/>
<path fill-rule="evenodd" clip-rule="evenodd" d="M408.807 317.155C407.63 321.152 406.905 323.035 406.63 322.803C406.355 322.572 406.46 320.167 406.945 315.588L408.807 317.155Z" fill="black" fill-opacity="0.302803"/>
<path fill-rule="evenodd" clip-rule="evenodd" d="M467.778 291.195C467.778 291.195 459.34 319.494 459.09 324.851C458.84 330.208 465.991 345.953 464.774 349.932C461.966 359.128 426.124 363.088 424.755 350.717C424.116 344.948 425.446 339.769 423.914 332.971C422.388 326.173 416.254 316.07 419.733 306.572C423.212 297.074 422.28 288.287 424.769 286.627C427.257 284.966 433.074 283.202 433.074 283.202C435.902 287.371 445.452 287.31 450.008 282.908C450.008 282.908 461.328 285.107 467.778 291.195Z" fill="#104960"/>
<path fill-rule="evenodd" clip-rule="evenodd" d="M460.216 295.778C454.592 304.718 454.609 320.284 451.588 322.323C448.567 324.361 436.81 322.361 436.81 323.975C436.81 325.589 453.058 340.385 450.39 347.457C448.994 351.161 449.372 354.474 451.527 357.397L452.23 357.243C458.632 355.794 463.779 353.192 464.774 349.932C465.991 345.953 458.015 330.208 458.265 324.85C458.477 320.303 465.184 299.225 467.206 292.957C465.56 290.048 463.23 290.988 460.216 295.778Z" fill="black" fill-opacity="0.199355"/>
<path fill-rule="evenodd" clip-rule="evenodd" d="M450.625 319.497C450.625 319.497 443.518 313.197 441.342 312.466C439.166 311.734 426.424 310.856 426.504 312.508C426.595 314.278 433.44 314.176 434.149 315.047C434.858 315.918 435.019 321.869 437.7 322.537C440.375 323.205 448.396 324.357 448.396 324.357L450.625 319.497Z" fill="url(#paint5_linear_2_6767)"/>
<path fill-rule="evenodd" clip-rule="evenodd" d="M469.533 292.821C477.021 303.406 483.414 319.529 485.868 325.815C488.322 332.101 485.847 341.582 475.056 339.72C464.285 337.864 447.147 327.777 445.251 324.834C443.354 321.892 446.235 316.537 449.863 317.238C453.224 317.887 469.894 324.986 469.894 324.986C469.894 324.986 459.169 305.946 456.55 300.842C452.176 292.318 462.938 283.495 469.533 292.821Z" fill="#104960"/>
<path fill-rule="evenodd" clip-rule="evenodd" d="M469.725 324.856C473.469 326.719 475.113 327.26 474.657 326.479C474.2 325.697 471.841 323.934 467.581 321.188L469.725 324.856Z" fill="black" fill-opacity="0.302803"/>
<path fill-rule="evenodd" clip-rule="evenodd" d="M194.468 423.347C194.468 423.347 194.356 430.562 198.779 433.124C203.202 435.687 210.054 440.449 210.054 440.449L183.987 441.333L184.73 423.282L194.468 423.347Z" fill="#F8CFCF"/>
<path fill-rule="evenodd" clip-rule="evenodd" d="M183.077 431.297L182.653 443.001H188.707L189.122 441.493C189.122 441.493 191.402 441.399 192.719 442.051C194.111 442.74 194.298 443.074 194.298 443.074L213.503 443.114C213.503 443.114 214.451 439.331 208.597 436.595C202.742 433.859 198.48 429.975 197.67 429.577C196.855 429.177 195.209 428.95 194.05 429.892C192.892 430.832 191.975 433.305 189.349 433.383C185.97 433.483 184.028 429.318 183.077 431.297Z" fill="#4B4B4B"/>
<path d="M199.49 430.846L197.499 432.774" stroke="white" stroke-width="2" stroke-linecap="round"/>
<path d="M202.393 432.308L200.402 434.236" stroke="white" stroke-width="2" stroke-linecap="round"/>
<path d="M205.296 433.769L203.305 435.697" stroke="white" stroke-width="2" stroke-linecap="round"/>
<path fill-rule="evenodd" clip-rule="evenodd" d="M175.39 267.494C175.39 267.494 182.631 347.311 182.857 352.859C183.082 358.408 180.531 367.983 180.58 378.362C180.613 385.281 180.924 400.933 181.512 425.319L197.487 425.658C201.963 381.59 204.225 356.253 204.273 349.645C204.345 339.733 204.961 268.448 204.961 268.448L175.39 267.494Z" fill="#383838"/>
<path opacity="0.283552" fill-rule="evenodd" clip-rule="evenodd" d="M186.905 355.344L186.922 355.541C187.163 358.925 185.063 370.057 180.624 388.938L180.58 378.362C180.532 368.168 182.992 358.75 182.866 353.16L182.857 352.859C182.781 350.989 181.908 340.685 180.784 327.843L181.309 329.724C184.389 340.864 186.254 349.404 186.905 355.344Z" fill="white" fill-opacity="0.192499"/>
<path fill-rule="evenodd" clip-rule="evenodd" d="M155.929 422.33L152.848 441.013L164.205 440.956L164.565 422.037L155.929 422.33Z" fill="#F8CFCF"/>
<path fill-rule="evenodd" clip-rule="evenodd" d="M152.752 432.757L152.66 435.534C151.526 436.794 150.708 439.314 150.208 443.094C150.208 445.736 167.759 445.658 168.603 443.094C167.99 438.977 167.023 436.401 165.701 435.366L165.691 432.615C165.687 431.494 164.933 430.515 163.852 430.224L162.145 429.766C160.485 427.342 158.222 427.427 156.284 430.069L154.707 430.411C153.595 430.652 152.79 431.619 152.752 432.757Z" fill="#4B4B4B"/>
<path d="M156.929 432.088H161.526" stroke="white" stroke-width="2" stroke-linecap="round"/>
<path d="M156.929 434.278H161.526" stroke="white" stroke-width="2" stroke-linecap="round"/>
<path d="M157.66 436.468H160.795" stroke="white" stroke-width="2" stroke-linecap="round"/>
<path fill-rule="evenodd" clip-rule="evenodd" d="M161.657 268.541C161.657 268.541 156.582 323.254 156.651 333.731C156.72 344.209 158.213 348.811 156.088 356.327C154.672 361.338 153.36 383.841 152.152 423.837L167.863 425.559C174.555 382.761 178.264 358.395 178.992 352.461C180.083 343.561 193.574 267.786 193.574 267.786L161.657 268.541Z" fill="#2E2E2E"/>
<path opacity="0.283552" fill-rule="evenodd" clip-rule="evenodd" d="M165.9 305.675L164.942 309.148C162.136 319.397 159.546 330.235 160.224 345.717L160.257 346.424C160.424 349.778 158.293 369.241 153.863 404.815L153.442 407.315C153.007 409.865 152.62 412.041 152.281 413.843L152.378 410.692C152.943 393.302 154.462 362.082 156.089 356.327C158.213 348.811 156.72 344.209 156.651 333.731C156.603 326.397 159.075 297.388 160.563 280.642L161.657 268.541L168.289 268.384L168.305 270.248C168.422 287.451 167.62 299.26 165.9 305.675Z" fill="white" fill-opacity="0.192499"/>
<path fill-rule="evenodd" clip-rule="evenodd" d="M238.956 200.882C238.956 200.882 237.644 193.645 238.116 192.18C238.519 190.913 242.326 189.087 242.326 189.087C242.326 189.087 248.948 178.73 250.397 179.785C251.576 180.64 246.949 188.275 246.949 188.275C246.949 188.275 251.169 192.658 251.11 194.617C251.051 196.577 244.222 202.711 244.222 202.711L238.956 200.882Z" fill="#F8CFCF"/>
<path fill-rule="evenodd" clip-rule="evenodd" d="M242.468 188.983C242.468 188.983 245.401 188.588 245.868 189.492C246.266 190.262 243.829 192.445 243.829 193.059C243.829 193.673 243.864 198.319 244.06 198.361C244.256 198.404 246.998 190.78 246.413 189.167C245.932 187.843 242.468 188.983 242.468 188.983Z" fill="#F28585"/>
<path fill-rule="evenodd" clip-rule="evenodd" d="M203.97 210.089C196.288 203.446 184.753 215.423 197.615 226.558C202.522 230.805 217.937 241.401 221.715 243.731C227.731 247.44 232.674 244.093 234.705 238.258C236.428 233.31 246.735 206.826 245.424 202.936C244.569 200.399 239.978 197.93 237.674 199.926C234.307 202.844 224.007 228.437 224.007 228.437C224.007 228.437 212.704 217.643 203.97 210.089Z" fill="#104960"/>
<path fill-rule="evenodd" clip-rule="evenodd" d="M224.007 228.437C226.256 231.168 227.462 232.325 227.624 231.908C227.787 231.491 226.895 229.528 224.949 226.018L224.007 228.437Z" fill="black" fill-opacity="0.159856"/>
<path d="M236.78 201.567C239.46 200.325 242.388 201.861 244.001 204.325" stroke="#104960" stroke-linecap="round"/>
<path fill-rule="evenodd" clip-rule="evenodd" d="M171.039 202.427C171.039 202.427 175.455 201.409 175.609 194.308C175.762 187.206 175.654 184.782 175.654 184.782L186.125 184.61C186.125 184.61 186.23 192.524 186.232 195.387C186.236 201.619 190.953 203.303 190.953 203.303C190.953 203.303 190.561 210.118 181.746 210.604C174.863 210.985 171.039 202.427 171.039 202.427Z" fill="#F8C5C5"/>
<path fill-rule="evenodd" clip-rule="evenodd" d="M195.452 177.127L195.219 183.838C197.197 181.556 198.534 178.727 198.929 175.099L195.452 177.127Z" fill="url(#paint6_linear_2_6767)"/>
<path fill-rule="evenodd" clip-rule="evenodd" d="M174.693 181.193C170.353 181.028 171.061 187.262 175.569 187.254C175.569 187.254 180.414 196.814 188.02 196.838C191.684 196.85 192.88 193.648 193.979 191.399C195.077 189.151 195.883 185.788 195.95 183.729C196.022 181.533 196.031 174.32 196.031 174.32L174.524 174.311L174.693 181.193Z" fill="#F8CFCF"/>
<path fill-rule="evenodd" clip-rule="evenodd" d="M196.032 177.63H180.906C180.747 180.312 179.839 182.539 177.534 184.182C177.599 188.112 178.939 190.972 181.261 192.979C183.284 187.291 195.654 188.847 194.754 192.558C192.864 200.354 175.147 200.531 176.222 182.588C175.515 181.642 172.987 181.465 172.155 182.411C170.734 178.491 171.341 172.945 175.45 172.143C172.224 163.79 216.09 162.023 196.032 177.63Z" fill="#424242"/>
<path d="M186.34 192.214C186.34 192.214 188.311 193.635 190.905 192.081" stroke="#CC6969" stroke-linecap="round"/>
<path d="M175.37 184.752C175.414 183.752 175.104 182.957 174.064 182.798" stroke="#DE6767" stroke-linecap="round"/>
<path fill-rule="evenodd" clip-rule="evenodd" d="M172.981 201.241L185.476 209.354L191.11 202.804C191.11 202.804 202.979 206.481 205.18 210.78C208.358 216.983 204.172 266.684 205.997 269.683C209.885 276.074 204.715 280.461 187.598 282.072C170.481 283.684 155.295 282.364 158.051 273.836C160.807 265.307 150.172 209.645 159.548 206.578C162.478 205.62 172.981 201.241 172.981 201.241Z" fill="#104960"/>
<path fill-rule="evenodd" clip-rule="evenodd" d="M164.549 216.586C165.306 217.923 164.916 222.555 163.379 230.482C162.07 237.236 163.567 244.222 167.519 249.858L167.741 250.17C169.078 252.016 170.31 254.447 171.438 257.463C174.204 264.86 167.824 271.027 172.713 282.598L172.122 282.57C162.529 282.074 156.187 279.603 158.051 273.836C160.311 266.843 153.568 228.164 156.235 212.77C160.85 213.676 163.622 214.948 164.549 216.586Z" fill="black" fill-opacity="0.159856"/>
<path fill-rule="evenodd" clip-rule="evenodd" d="M172.981 201.241L184.157 208.525C182.519 210.428 181.64 212.642 181.309 215.079C177.013 211.722 172.549 207.032 171.165 201.988L172.981 201.241Z" fill="#104960"/>
<path fill-rule="evenodd" clip-rule="evenodd" d="M186.359 208.335C188.249 209.613 189.756 211.874 190.984 214.445C192.455 211.49 193.018 207.588 193.018 203.427L191.173 202.698L186.359 208.335Z" fill="#104960"/>
<path fill-rule="evenodd" clip-rule="evenodd" d="M184.157 208.524L184.303 208.606C184.973 208.98 185.809 208.87 186.359 208.335C190.573 223.773 193.536 240.764 194.432 258.033L190.035 265.332L184.891 258.501C185.561 240.553 185.557 223.054 184.157 208.524Z" fill="#CBC6FF"/>
<path d="M197.632 245.805L207.816 247.296C208.898 247.455 209.663 248.44 209.549 249.529L207.725 266.929C207.607 268.05 206.604 268.863 205.484 268.745C205.457 268.742 205.429 268.738 205.402 268.734L195.219 267.243C194.136 267.084 193.371 266.099 193.486 265.01L195.31 247.61C195.427 246.489 196.431 245.676 197.551 245.794C197.578 245.797 197.605 245.801 197.632 245.805Z" fill="#104960"/>
<path fill-rule="evenodd" clip-rule="evenodd" d="M198.942 245.471L209.589 247.562L216.874 247.442C218 247.423 218.928 248.321 218.947 249.448C218.949 249.53 218.945 249.613 218.937 249.695L217.115 267.068C217.008 268.094 216.152 268.877 215.122 268.894L207.339 269.023L196.335 266.862C195.299 266.658 194.589 265.697 194.699 264.646L196.522 247.259C196.64 246.138 197.643 245.326 198.763 245.444C198.823 245.45 198.882 245.459 198.942 245.471Z" fill="#96EFFA"/>
<path d="M200.003 250.169L204.889 251.065C205.57 251.19 206.04 251.818 205.968 252.507L205.76 254.489C205.684 255.217 205.032 255.744 204.305 255.668C204.272 255.664 204.238 255.659 204.205 255.653L199.319 254.758C198.638 254.633 198.168 254.005 198.24 253.316L198.448 251.334C198.525 250.606 199.176 250.078 199.903 250.155C199.937 250.158 199.97 250.163 200.003 250.169Z" fill="#74CFDB"/>
<path d="M209.503 247.551L209.932 247.596C210.295 247.635 210.559 247.961 210.521 248.325L208.415 268.402C208.377 268.766 208.051 269.03 207.687 268.991L207.259 268.946C206.895 268.908 206.631 268.582 206.669 268.218L208.775 248.141C208.814 247.777 209.139 247.513 209.503 247.551Z" fill="#EAEFFF"/>
<path d="M210.085 247.612L210.513 247.658C210.877 247.696 211.141 248.022 211.103 248.386L208.996 268.463C208.958 268.827 208.632 269.091 208.268 269.053L207.84 269.008C207.476 268.969 207.212 268.643 207.25 268.279L209.357 248.202C209.395 247.838 209.721 247.574 210.085 247.612Z" fill="#7AD2DD"/>
<path fill-rule="evenodd" clip-rule="evenodd" d="M184.399 255.414C184.399 255.414 188.193 254.655 189.746 253.443C191.299 252.23 196.002 251.373 196.002 251.373L194.497 254.524C194.497 254.524 206.024 253.448 206.297 254.579C206.57 255.71 203.236 256.94 203.236 256.94C203.236 256.94 201.592 259.994 200 261.764C198.495 263.44 191.013 263.24 188.39 262.195C186.124 261.292 183.66 261.743 183.66 261.743L184.399 255.414Z" fill="#F8CFCF"/>
<path fill-rule="evenodd" clip-rule="evenodd" d="M153.881 211.377C158.002 202.518 172.115 208.487 168.559 217.977C165.113 227.171 156.766 248.636 156.766 248.636C156.766 248.636 183.217 251.977 185.279 253.534C188.03 255.612 186.33 261.542 183.992 262.597C182.013 263.49 167.319 264.012 152.941 262.885C145.829 262.328 140.569 259.288 139.835 251.393C139.321 245.865 149.91 219.911 153.881 211.377Z" fill="#104960"/>
<path fill-rule="evenodd" clip-rule="evenodd" d="M156.776 248.631C155.311 251.402 154.787 252.816 155.206 252.873C155.625 252.929 156.899 251.617 159.028 248.935L156.776 248.631Z" fill="black" fill-opacity="0.159856"/>
<path d="M183.417 253.082C184.233 255.673 183.66 258.711 182.528 260.858" stroke="#104960" stroke-linecap="round"/>
<path fill-rule="evenodd" clip-rule="evenodd" d="M71.4492 368.815C78.2571 365.755 86.2542 368.798 89.3113 375.613C89.3231 375.639 89.3347 375.666 89.3463 375.692L91.7145 381.062C84.9066 384.122 76.9095 381.079 73.8524 374.264C73.8407 374.238 73.829 374.212 73.8175 374.185L71.4492 368.815Z" fill="#02D3AF"/>
<path fill-rule="evenodd" clip-rule="evenodd" d="M81.2206 372.091C88.0454 376.952 92.4709 382.37 94.5103 388.342C96.5597 394.344 97.3994 404.405 97.018 418.505C97.0121 418.723 97.1826 418.905 97.3989 418.911C97.6152 418.917 97.7952 418.745 97.8012 418.526C98.1849 404.339 97.3386 394.198 95.251 388.085C93.1534 381.942 88.6228 376.396 81.6723 371.444C81.4955 371.319 81.2511 371.361 81.1264 371.54C81.0016 371.718 81.0438 371.965 81.2206 372.091Z" fill="#02B596"/>
<path fill-rule="evenodd" clip-rule="evenodd" d="M129.465 365.48C122.766 362.327 114.781 365.206 111.63 371.912C111.618 371.938 111.606 371.965 111.593 371.992L108.934 377.748C115.633 380.902 123.618 378.023 126.769 371.317C126.781 371.29 126.794 371.264 126.806 371.237L129.465 365.48Z" fill="#02D3AF"/>
<path fill-rule="evenodd" clip-rule="evenodd" d="M75.6968 352.286C82.1876 350.904 88.5668 355.049 89.9451 361.545L91.061 366.803C84.5702 368.185 78.191 364.04 76.8126 357.544L75.6968 352.286Z" fill="#02D3AF"/>
<path fill-rule="evenodd" clip-rule="evenodd" d="M80.469 356.482C85.4719 359.976 88.8561 363.744 90.6306 367.782L90.7396 368.036L90.8495 368.304C92.668 372.822 95.6773 384.655 99.8612 403.76C99.9079 403.973 100.117 404.109 100.329 404.062C100.54 404.016 100.673 403.805 100.627 403.592L100.108 401.235L99.5028 398.508C95.7228 381.58 93.0089 371.245 91.3473 367.464C89.5085 363.28 86.0278 359.404 80.9141 355.832C80.7358 355.708 80.4917 355.752 80.3688 355.931C80.2459 356.111 80.2907 356.357 80.469 356.482Z" fill="#02B596"/>
<path fill-rule="evenodd" clip-rule="evenodd" d="M119.649 348.288C112.498 348.162 106.599 353.863 106.473 361.021C106.473 361.022 106.473 361.024 106.473 361.025L106.363 367.413C113.513 367.539 119.412 361.838 119.538 354.68C119.538 354.679 119.538 354.677 119.538 354.676L119.649 348.288Z" fill="#02D3AF"/>
<path fill-rule="evenodd" clip-rule="evenodd" d="M114.955 350.857C110.354 357.615 106.993 364.139 104.872 370.428C102.754 376.706 100.642 386.401 98.5322 399.521C98.4976 399.737 98.6426 399.94 98.8561 399.975C99.0696 400.01 99.2708 399.863 99.3055 399.648L99.5649 398.053L99.7428 396.978C101.701 385.246 103.658 376.479 105.613 370.683C107.71 364.466 111.039 358.007 115.601 351.305C115.723 351.125 115.678 350.879 115.5 350.755C115.321 350.631 115.078 350.677 114.955 350.857Z" fill="#02B596"/>
<path fill-rule="evenodd" clip-rule="evenodd" d="M104.99 346.43C102.502 353.523 100.709 362.294 99.6094 372.742C98.5099 383.191 98.2809 393.639 98.9224 404.088L100.743 404.254C100.091 392.059 100.157 381.578 100.94 372.812C101.723 364.046 103.376 355.279 105.9 346.513L104.99 346.43Z" fill="#02B596"/>
<path fill-rule="evenodd" clip-rule="evenodd" d="M104.672 350.111C107.891 350.922 111.151 348.944 111.953 345.694C112.756 342.445 110.387 332.529 109.095 332.204C107.802 331.878 101.1 339.511 100.298 342.76C99.495 346.01 101.454 349.301 104.672 350.111Z" fill="#C2FFF4"/>
<path fill-rule="evenodd" clip-rule="evenodd" d="M105.565 347.553C107.804 348.117 110.084 346.692 110.657 344.371C111.231 342.05 109.101 336.043 108.202 335.817C107.303 335.59 103.122 340.009 102.549 342.33C101.976 344.651 103.326 346.989 105.565 347.553Z" fill="#02D3AF"/>
<path fill-rule="evenodd" clip-rule="evenodd" d="M106.496 347.001L109.853 336.513C110.052 335.89 109.714 335.221 109.096 335.019C108.478 334.818 107.816 335.16 107.616 335.783L104.259 346.271C104.06 346.895 104.399 347.563 105.016 347.765C105.634 347.966 106.296 347.624 106.496 347.001Z" fill="url(#paint7_linear_2_6767)"/>
<path fill-rule="evenodd" clip-rule="evenodd" d="M86.8274 335.888C90.0425 342.682 92.7423 351.217 94.9266 361.493C97.111 371.768 98.4293 382.136 98.8814 392.594L97.0873 392.949C96.4631 380.753 95.3041 370.337 93.6102 361.701C91.9164 353.065 89.3564 344.52 85.9304 336.066L86.8274 335.888Z" fill="#02B596"/>
<path fill-rule="evenodd" clip-rule="evenodd" d="M87.5262 339.515C84.4094 340.658 80.9609 339.033 79.8237 335.885C78.6865 332.737 80.0079 322.628 81.2595 322.169C82.5111 321.71 89.9734 328.599 91.1105 331.746C92.2477 334.894 90.643 338.372 87.5262 339.515Z" fill="#C2FFF4"/>
<path fill-rule="evenodd" clip-rule="evenodd" d="M86.3711 337.064C84.2029 337.859 81.7868 336.681 80.9745 334.433C80.1622 332.185 81.6537 325.988 82.5243 325.669C83.395 325.349 88.0138 329.306 88.8261 331.554C89.6384 333.802 88.5392 336.269 86.3711 337.064Z" fill="#02D3AF"/>
<path fill-rule="evenodd" clip-rule="evenodd" d="M85.3882 336.612L80.9547 326.534C80.6911 325.935 80.9584 325.234 81.5516 324.969C82.1449 324.704 82.8395 324.975 83.1031 325.574L87.5366 335.652C87.8002 336.252 87.5329 336.952 86.9397 337.217C86.3464 337.482 85.6518 337.211 85.3882 336.612Z" fill="url(#paint8_linear_2_6767)"/>
<path fill-rule="evenodd" clip-rule="evenodd" d="M125.767 367.16C116.478 370.799 110.002 375.004 106.339 379.79C102.678 384.577 100.258 391.999 99.0646 402.06C99.0389 402.277 99.1921 402.474 99.4069 402.5C99.6217 402.526 99.8167 402.371 99.8425 402.155C101.021 392.223 103.398 384.929 106.959 380.274C110.52 375.619 116.883 371.489 126.05 367.898C126.252 367.819 126.352 367.59 126.274 367.386C126.196 367.182 125.969 367.081 125.767 367.16Z" fill="#02B596"/>
<path fill-rule="evenodd" clip-rule="evenodd" d="M100.873 396.35C97.9329 385.862 90.6574 382.152 79.0464 385.221C87.7395 388.065 94.3027 391.775 98.736 396.35H100.873Z" fill="#02B596"/>
<path fill-rule="evenodd" clip-rule="evenodd" d="M100.828 393.933C103.768 383.445 110.138 378.968 119.938 380.501C113.986 385.399 108.329 389.876 102.965 393.933H100.828Z" fill="#02B596"/>
<path fill-rule="evenodd" clip-rule="evenodd" d="M100.796 397.06C98.1672 387.756 99.9186 379.099 106.05 371.089C105.739 382.109 104.518 390.426 102.387 396.041L100.796 397.06Z" fill="#02B596"/>
<path fill-rule="evenodd" clip-rule="evenodd" d="M96.9382 393.933C95.1949 388.89 93.4608 381.847 92.1616 375.019C98.5838 377.604 100.647 387.905 98.5838 393.933H96.9382Z" fill="#02D3AF"/>
<mask id="mask1_2_6767" style="mask-type:alpha" maskUnits="userSpaceOnUse" x="84" y="388" width="30" height="61">
<path d="M86.0652 388.877H111.424C112.345 388.877 113.092 389.624 113.092 390.546C113.092 390.595 113.09 390.643 113.085 390.691L108.198 446.669C108.123 447.531 107.402 448.193 106.537 448.193H90.952C90.0871 448.193 89.3657 447.531 89.2905 446.669L84.4036 390.691C84.3235 389.773 85.0023 388.963 85.92 388.883C85.9683 388.879 86.0167 388.877 86.0652 388.877Z" fill="white"/>
</mask>
<g mask="url(#mask1_2_6767)">
<path d="M86.0652 388.877H111.424C112.345 388.877 113.092 389.624 113.092 390.546C113.092 390.595 113.09 390.643 113.085 390.691L108.198 446.669C108.123 447.531 107.402 448.193 106.537 448.193H90.952C90.0871 448.193 89.3657 447.531 89.2905 446.669L84.4036 390.691C84.3235 389.773 85.0023 388.963 85.92 388.883C85.9683 388.879 86.0167 388.877 86.0652 388.877Z" fill="#104960"/>
<path fill-rule="evenodd" clip-rule="evenodd" d="M80.5874 385.173H91.2964C84.6602 410.393 104.638 427.731 91.2964 452.951H80.5874V385.173Z" fill="#104960"/>
</g>
<path fill-rule="evenodd" clip-rule="evenodd" d="M562.36 374.228L552.894 449.099L557.857 449.033L567.324 374.929L562.36 374.228Z" fill="#25A9E0"/>
<path fill-rule="evenodd" clip-rule="evenodd" d="M534.812 374.228L525.345 449.099L530.308 449.033L539.775 374.929L534.812 374.228Z" fill="#25A9E0"/>
<path fill-rule="evenodd" clip-rule="evenodd" d="M595.244 374.228L604.711 449.099L599.748 449.033L590.281 374.929L595.244 374.228Z" fill="#BFE7FF"/>
<path fill-rule="evenodd" clip-rule="evenodd" d="M523.377 378.175C523.377 373.855 526.876 370.353 531.191 370.353H562.432C567.166 370.353 571.122 366.747 571.565 362.03L576.561 308.868C577.004 304.151 580.96 300.545 585.693 300.545H605.301C610.367 300.545 614.474 304.657 614.474 309.728C614.474 309.963 614.465 310.197 614.447 310.431L609.298 377.518C608.93 382.302 604.945 385.997 600.151 385.997H531.191C526.876 385.997 523.377 382.495 523.377 378.175Z" fill="#25A9E0"/>
<path fill-rule="evenodd" clip-rule="evenodd" d="M605.091 300.545C605.566 300.545 606.034 300.582 606.49 300.652C606.563 301.117 606.601 301.594 606.601 302.079C606.601 302.315 606.592 302.55 606.574 302.785L601.428 369.632C601.06 374.415 597.075 378.109 592.282 378.109H523.508L523.379 378.108C523.378 378.057 523.377 378.007 523.377 377.956C523.377 373.647 526.867 370.154 531.171 370.154H562.319C567.052 370.154 571.007 366.55 571.452 361.834L576.443 308.866C576.887 304.149 580.843 300.545 585.576 300.545H605.091Z" fill="#BFE7FF"/>
<path fill-rule="evenodd" clip-rule="evenodd" d="M532.878 425.186C532.878 425.186 537.218 433.961 533.66 436.726C530.097 439.491 520.685 444.674 520.685 444.674L545.62 443.105L540.077 423.969L532.878 425.186Z" fill="url(#paint9_linear_2_6767)"/>
<path fill-rule="evenodd" clip-rule="evenodd" d="M543.15 433.126C542.365 433.501 543.655 437.027 540.894 436.779C538.134 436.532 536.401 432.888 534.366 433.124C532.33 433.36 531.038 437.03 527.162 439.586C523.287 442.143 517.542 445.192 517.927 447.762C518.312 450.332 527.353 451.02 531.934 450.17C536.514 449.319 538.653 447.476 541.624 447.623C544.596 447.77 546.464 447.406 547.395 445.496C548.327 443.585 544.055 432.694 543.15 433.126Z" fill="#EEDFE8"/>
<path fill-rule="evenodd" clip-rule="evenodd" d="M542.929 444.857L542.675 444.842C538.992 444.531 536.465 446.85 532.96 447.504C529.454 448.158 520.208 448.384 518.732 446.189C518.662 446.085 518.597 445.978 518.537 445.87C518.041 446.481 517.807 447.134 517.927 447.895C518.312 450.341 527.354 450.996 531.935 450.186C536.516 449.377 538.654 447.623 541.626 447.763L542.155 447.783C544.821 447.855 546.522 447.446 547.398 445.738C547.611 445.322 547.563 444.427 547.349 443.297C546.106 444.148 544.537 444.906 542.929 444.857Z" fill="#EC7AA5"/>
<path fill-rule="evenodd" clip-rule="evenodd" d="M570.44 347.851C562.891 348.188 520.876 357.49 513.242 359.071C505.609 360.651 499.155 369.203 504.976 379.105C511.514 390.221 528.382 421.79 532.478 428.906C534.505 432.428 544.732 430.454 542.329 424.542C537.851 413.521 535.772 385.835 524.355 375.74C524.355 375.74 562.75 382.43 579.335 374.767C591.389 369.198 588.662 347.035 570.44 347.851Z" fill="#413C75"/>
<path fill-rule="evenodd" clip-rule="evenodd" d="M517.779 300.681C517.779 300.681 517.865 296.189 515.716 292.976C513.568 289.762 513.482 286.349 511.856 286.461C510.23 286.573 511.84 294.506 511.84 294.506C511.84 294.506 509.777 293.717 508.295 292.719C506.813 291.721 502.318 286.801 501.268 287.673C499.487 289.158 502.356 297.538 503.918 299.214C505.485 300.889 513.22 305.572 513.22 305.572L536 328.544L539.406 316.349L517.779 300.681Z" fill="url(#paint10_linear_2_6767)"/>
<path fill-rule="evenodd" clip-rule="evenodd" d="M563.343 298.653C559.831 306.806 553.401 321.784 550.75 326.252C547.429 331.848 542.19 334.314 536.057 330.162C535.202 329.582 533.546 328.28 531.089 326.254C531.634 320.936 533.619 316.491 537.041 312.917C538.59 314.199 539.365 314.841 539.365 314.841C539.365 314.841 545.955 297.93 551.256 288.134C555.848 279.659 568.688 286.259 563.343 298.653Z" fill="#EA5455"/>
<path fill-rule="evenodd" clip-rule="evenodd" d="M539.297 314.85C538.117 318.856 537.389 320.743 537.113 320.511C536.837 320.279 536.942 317.869 537.429 313.279L539.297 314.85Z" fill="black" fill-opacity="0.159856"/>
<path fill-rule="evenodd" clip-rule="evenodd" d="M578.519 267.006V274.22L583.812 269.955C583.812 269.955 585.438 263.043 586.761 257.909C587.591 254.69 589.612 243.795 581.475 244.305C574.809 232.542 555.395 239.823 555.241 254.193C555.055 271.478 555.206 278.207 555.206 278.207C566.184 278.838 572.363 277.249 578.519 267.006Z" fill="#422851"/>
<path fill-rule="evenodd" clip-rule="evenodd" d="M583.926 280.742C583.926 280.742 579.003 279.585 578.832 271.51C578.661 263.434 578.781 260.678 578.781 260.678L567.937 260.482C567.937 260.482 567.819 269.482 567.817 272.737C567.812 280.652 561.998 281.301 561.998 281.301C561.998 281.301 562.992 287.831 572.818 288.384C580.49 288.817 583.926 280.742 583.926 280.742Z" fill="url(#paint11_linear_2_6767)"/>
<path fill-rule="evenodd" clip-rule="evenodd" d="M581.309 256.646C586.147 256.458 585.358 263.548 580.332 263.538C580.332 263.538 577.413 273.609 567.28 273.609C559.05 273.609 558.514 261.871 558.44 259.53C558.359 257.033 558.349 248.831 558.349 248.831L581.497 248.82L581.309 256.646Z" fill="url(#paint12_linear_2_6767)"/>
<path fill-rule="evenodd" clip-rule="evenodd" d="M581.683 256.599C579.679 256.93 579.922 258.259 579.377 258.143C576.608 257.553 565.403 258.331 563.96 252.163C562.165 256.016 561.726 256.963 557.773 257.998V246.706L582.776 244.305C582.776 244.305 582.388 256.482 581.683 256.599Z" fill="#422851"/>
<path d="M569.233 266.843C569.233 266.843 566.82 268.889 564.024 266.973" stroke="#F77B7B" stroke-width="1.5" stroke-linecap="round"/>
<path d="M567.64 269.212C566.889 269.559 566.166 269.584 565.521 269.239" stroke="#F49494" stroke-linecap="round"/>
<path d="M580.816 260.458C580.766 259.321 581.113 258.418 582.271 258.236" stroke="#F77B7B" stroke-linecap="round"/>
<path fill-rule="evenodd" clip-rule="evenodd" d="M582.826 279.916C576.648 283.704 569.505 285.092 562.856 280.979C552.005 302.396 549.301 327.95 551.911 356.194C567.734 362.464 581.032 361.231 592.354 354.064L582.826 279.916Z" fill="#FFE4F4"/>
<path fill-rule="evenodd" clip-rule="evenodd" d="M505.83 425.539C505.83 425.539 505.961 435.866 497.459 439.728C488.963 443.588 482.91 443.356 483.681 446.341C484.451 449.326 506.565 449.205 508.63 446.871C510.39 444.885 514.218 426.393 515.272 427.807L505.83 425.539Z" fill="url(#paint13_linear_2_6767)"/>
<path fill-rule="evenodd" clip-rule="evenodd" d="M512.005 440.124C510.702 439.185 509.606 444.597 506.067 443.092C502.529 441.587 505.319 436.613 503.092 435.696C500.865 434.779 496.565 439.711 490.853 440.91C485.141 442.108 480.504 443.157 479.186 445.382C478.05 447.295 479.186 447.906 479.186 447.906C479.186 447.906 484.684 450.655 488.101 451.26C493.064 452.139 507.41 452.724 508.981 451.122C509.947 450.139 512.656 440.594 512.005 440.124Z" fill="#EEDFE8"/>
<path fill-rule="evenodd" clip-rule="evenodd" d="M478.876 445.607C477.799 447.365 479.498 448.279 479.702 448.381L480.521 448.73C482.077 449.377 485.586 450.766 488.179 451.262C492.935 452.172 507.661 452.711 509.245 451.146C509.523 450.872 509.867 449.867 510.2 448.562L509.189 448.672C504.326 449.188 493.471 450.121 488.114 448.858C483.359 447.736 480.756 445.892 479.569 444.815C479.281 445.063 479.048 445.326 478.876 445.607Z" fill="#EC7AA5"/>
<path fill-rule="evenodd" clip-rule="evenodd" d="M594.093 344.658C601.409 360.125 599.926 370.515 589.644 375.826C574.729 383.53 530.077 374.418 530.077 374.418C530.077 374.418 530.875 380.848 530.077 386.584C527.993 401.562 518.083 426.518 515.986 429.654C513.086 433.99 504.253 430.72 504.087 427.109C503.92 423.498 510.745 377.384 511.783 368.59C512.816 359.796 516.076 358.518 525.597 356.114C527.785 355.562 553.652 349.127 556.022 349.315C569.596 350.389 582.286 348.837 594.093 344.658Z" fill="#524D87"/>
<path fill-rule="evenodd" clip-rule="evenodd" d="M582.062 373.431C567.295 375.088 528.201 371.674 526.631 373.225C525.132 374.706 525.382 400.475 522.019 415.389L522.531 413.981C525.693 405.188 528.977 394.495 530.077 386.584C530.875 380.848 530.077 374.418 530.077 374.418L531.878 374.767C540.366 376.363 576.519 382.606 589.644 375.826C596.756 372.152 599.658 366.049 598.351 357.517C596.099 367.161 590.669 372.466 582.062 373.431Z" fill="white" fill-opacity="0.056108"/>
<path fill-rule="evenodd" clip-rule="evenodd" d="M582.556 279.933C572.324 313.487 566.187 361.058 598.145 352.782C581.169 321.494 604.247 307.412 599.016 291.241C597.227 285.713 582.69 279.499 582.556 279.933Z" fill="#EA5455"/>
<path fill-rule="evenodd" clip-rule="evenodd" d="M594.098 293.867C582.532 295.614 592.066 315.827 588.248 318.872C584.431 321.917 577.786 322.245 577.07 324.106C575.63 327.845 582.591 337.283 597.952 352.421L598.145 352.782C583.357 325.527 598.962 311.328 599.774 297.432C598.06 294.742 596.168 293.554 594.098 293.867Z" fill="black" fill-opacity="0.159856"/>
<path fill-rule="evenodd" clip-rule="evenodd" d="M563.398 280.744C559.493 290.548 557.616 298.24 555.865 312.631C554.891 320.621 554.648 332.86 555.135 349.348L550.31 350.298C548.01 324.824 547.244 310.448 548.013 307.168C549.949 298.912 551.26 294.088 553.816 286.541C555.224 282.399 563.398 280.744 563.398 280.744Z" fill="#EA5455"/>
<path fill-rule="evenodd" clip-rule="evenodd" d="M580.407 318.025C580.407 318.025 574.107 311.71 571.925 310.978C569.743 310.245 557.791 309.364 557.872 311.02C557.963 312.794 565.654 312.692 566.366 313.565C567.077 314.438 568.066 321.231 570.754 321.901C573.437 322.571 578.999 324.553 578.999 324.553L603.755 337.358L601.118 324.554L580.407 318.025Z" fill="url(#paint14_linear_2_6767)"/>
<path fill-rule="evenodd" clip-rule="evenodd" d="M599.37 291.288C606.879 301.897 613.291 318.057 615.752 324.358C618.213 330.658 615.73 340.161 604.909 338.296C604.05 338.148 602.921 337.802 601.524 337.257C597.545 331.797 596.847 327.11 598.332 322.936C599.265 323.33 599.732 323.527 599.732 323.527C599.732 323.527 588.976 304.443 586.35 299.327C581.963 290.783 592.755 281.94 599.37 291.288Z" fill="#EA5455"/>
<path fill-rule="evenodd" clip-rule="evenodd" d="M599.732 323.527C603.374 325.308 604.966 325.807 604.508 325.024C604.05 324.24 601.764 322.505 597.651 319.818L599.732 323.527Z" fill="black" fill-opacity="0.159856"/>
<path fill-rule="evenodd" clip-rule="evenodd" d="M487.089 285.765L506.51 280.915C507.602 280.642 508.709 281.307 508.981 282.401L516.027 310.703C516.299 311.796 515.634 312.904 514.541 313.177L495.12 318.027C494.027 318.299 492.921 317.634 492.649 316.541L485.603 288.238C485.331 287.145 485.996 286.038 487.089 285.765Z" fill="url(#paint15_linear_2_6767)"/>
<path fill-rule="evenodd" clip-rule="evenodd" d="M487.846 286.221L507.267 281.371C508.36 281.098 509.466 281.763 509.738 282.857L516.784 311.159C517.056 312.252 516.391 313.36 515.299 313.633L495.878 318.483C494.785 318.755 493.679 318.09 493.406 316.997L486.361 288.695C486.089 287.601 486.754 286.494 487.846 286.221Z" fill="#104960"/>
<path d="M488.526 286.717L506.79 282.156C507.773 281.911 508.769 282.509 509.014 283.493L515.384 309.082C515.629 310.066 515.031 311.063 514.047 311.308L495.783 315.869C494.799 316.115 493.804 315.516 493.559 314.532L487.189 288.943C486.944 287.959 487.542 286.963 488.526 286.717Z" fill="white"/>
<path fill-rule="evenodd" clip-rule="evenodd" d="M317.856 329.499H327.301V449.481H317.856V329.499Z" fill="#E9E9E9"/>
<path fill-rule="evenodd" clip-rule="evenodd" d="M225.338 333.442H299.952V355.727H237.771V449.481H225.338V333.442Z" fill="#D3D3D3"/>
<path fill-rule="evenodd" clip-rule="evenodd" d="M224.856 333.442H231.474V449.481H224.856V333.442Z" fill="#DBDBDB"/>
<path fill-rule="evenodd" clip-rule="evenodd" d="M549.689 333.442H562.926V449.481H549.689V333.442Z" fill="#E9E9E9"/>
<path fill-rule="evenodd" clip-rule="evenodd" d="M549.689 329.499H557.962V449.481H549.689V329.499Z" fill="#DBDBDB"/>
<path fill-rule="evenodd" clip-rule="evenodd" d="M440.134 333.442H555.13V355.435H455.611V449.481H440.134V333.442Z" fill="#D3D3D3"/>
<path fill-rule="evenodd" clip-rule="evenodd" d="M234.616 329.499L440.525 329.499V362.815H234.616V329.499Z" fill="#DBDBDB"/>
<path fill-rule="evenodd" clip-rule="evenodd" d="M435.802 333.442H445.248V362.815H435.802V333.442Z" fill="#E9E9E9"/>
<path fill-rule="evenodd" clip-rule="evenodd" d="M440.163 333.442H447.609V449.481H440.163V333.442Z" fill="#DBDBDB"/>
<path fill-rule="evenodd" clip-rule="evenodd" d="M447.259 329.499H567.323C570.587 329.499 573.233 332.147 573.233 335.414C573.233 338.682 570.587 341.33 567.323 341.33H447.259C443.996 341.33 441.35 338.682 441.35 335.414C441.35 332.147 443.996 329.499 447.259 329.499Z" fill="#E9E9E9"/>
<path fill-rule="evenodd" clip-rule="evenodd" d="M232.255 331.865H438.164V343.697H232.255V331.865Z" fill="#E9E9E9"/>
<path fill-rule="evenodd" clip-rule="evenodd" d="M220.849 329.499H449.57C452.834 329.499 455.48 332.147 455.48 335.414C455.48 338.682 452.834 341.33 449.57 341.33H220.849C217.585 341.33 214.939 338.682 214.939 335.414C214.939 332.147 217.585 329.499 220.849 329.499Z" fill="#DBDBDB"/>
<path fill-rule="evenodd" clip-rule="evenodd" d="M251.823 420.023L245.289 441.26L258.996 441.758C258.996 441.758 257.448 434.493 259.657 427.684C261.43 422.217 262.876 419.489 262.876 419.489L251.823 420.023Z" fill="#92691F"/>
<path fill-rule="evenodd" clip-rule="evenodd" d="M258.636 435.922C262.124 439.157 265.545 441.374 268.898 442.573C273.929 444.371 275.855 444.391 276.213 445.067L276.279 445.196C277.313 447.335 276.686 450.175 265.219 450.332C262.431 450.371 259.533 448.75 251.841 447.035L251.285 450.033C246.98 449.976 244.468 449.296 243.749 447.995C242.665 446.048 244.507 436.446 245.777 436.264C247.048 436.082 247.299 439.987 250.71 440.073C254.126 440.158 258.636 435.922 258.636 435.922Z" fill="#391B0B"/>
<path fill-rule="evenodd" clip-rule="evenodd" d="M258.636 435.922C262.027 439.067 265.354 441.25 268.618 442.47C267.694 443.347 266.42 443.6 264.795 443.229C262.808 442.774 260.264 440.649 257.163 436.853L257.316 437.036C258.125 436.402 258.636 435.922 258.636 435.922Z" fill="#81411E"/>
<path fill-rule="evenodd" clip-rule="evenodd" d="M220.586 353.549C256.874 356.454 277.517 357.984 282.517 358.139C290.017 358.371 295.747 369.086 289.939 378.977C283.416 390.08 265.694 422.045 262.23 429.435C259.3 435.683 245.982 433.123 248.378 423.578C251.239 412.155 256.572 386.527 267.963 376.444C267.963 376.444 240.259 386.498 224.654 376.747C218.719 373.038 217.363 365.306 220.586 353.549Z" fill="#7A3636"/>
<path fill-rule="evenodd" clip-rule="evenodd" d="M289.939 378.977L289.091 380.434C285.789 386.144 280.459 395.793 275.37 405.191L275.638 404.33C279.573 391.793 285.688 377.024 288.303 372.517C289.219 370.938 290.467 369.328 292.046 367.688C292.715 371.128 292.206 375.116 289.939 378.977Z" fill="white" fill-opacity="0.192499"/>
<path fill-rule="evenodd" clip-rule="evenodd" d="M311.057 420.271C311.057 420.271 314.696 436.469 319.432 438.202C321.256 438.869 305.458 440.775 305.458 440.775L301.492 425.235L311.057 420.271Z" fill="#92691F"/>
<path fill-rule="evenodd" clip-rule="evenodd" d="M303.176 435.303L302.912 448.977L308.357 449.018L308.413 445.944C308.413 445.944 312.657 448.492 315.531 449.388C319.396 450.596 334.667 449.963 336.392 448.122C338.118 446.273 338.155 443.33 334.613 442.969C331.071 442.607 325.214 441.53 322.692 439.599C319.642 437.271 318.481 433.577 317.595 433.574C316.239 433.569 316.134 437.914 309.251 437.976C306.632 437.999 303.176 435.303 303.176 435.303Z" fill="#391B0B"/>
<path fill-rule="evenodd" clip-rule="evenodd" d="M316.186 434.793C316.186 434.793 319.698 440.279 321.786 441.073C323.874 441.859 325.556 440.977 325.556 440.977C325.556 440.977 321.956 439.541 320.566 437.035C317.416 431.358 316.786 434.246 316.186 434.793Z" fill="#81411E"/>
<path fill-rule="evenodd" clip-rule="evenodd" d="M225.09 357.951C225.039 369.556 228.909 376.818 236.698 379.735C248.383 384.11 286.431 382.463 286.431 382.463C286.431 382.463 298.505 426.934 301.398 431.265C304.291 435.597 318.01 436.045 317.268 426.069C316.52 416.093 311.166 379.056 310.131 370.273C309.101 361.489 305.848 359.386 296.349 357.812C293.01 357.259 294.427 356.372 272.963 355.366C268.353 355.15 260.619 356.878 253.511 357.66C248.773 358.182 239.299 358.279 225.09 357.951Z" fill="#7A3636"/>
<path fill-rule="evenodd" clip-rule="evenodd" d="M263.066 358.327V356.305L264.017 356.162C267.477 355.648 270.623 355.257 272.963 355.366L275.431 355.487C294.321 356.443 293.144 357.281 296.349 357.812L296.966 357.916C305.787 359.446 308.98 361.583 310.06 369.703L310.362 372.147C311.792 383.403 316.565 416.692 317.268 426.069C317.324 426.82 317.298 427.511 317.2 428.147L314.419 414.128C310.321 393.345 308.025 381.03 307.529 377.184L307.426 376.385C306.501 369.558 304.078 361.088 296.261 361.64L295.586 361.697C290.082 362.117 279.645 361.06 264.273 358.527L263.066 358.327Z" fill="white" fill-opacity="0.192499"/>
<path d="M317.548 377.105C319.229 377.494 321.143 375.419 321.823 372.471C322.502 369.524 321.691 366.82 320.01 366.431C318.329 366.043 316.415 368.117 315.735 371.065C315.056 374.012 315.867 376.717 317.548 377.105Z" fill="white" fill-opacity="0.192499"/>
<path fill-rule="evenodd" clip-rule="evenodd" d="M233.519 334.835C233.519 334.835 246.252 337.785 246.123 338.944C245.996 340.108 240.39 340.287 240.39 340.287C240.39 340.287 250.753 346.985 249.928 348.293C249.103 349.599 242.347 351.072 239.543 350.017C236.738 348.963 229.468 341.292 229.468 341.292L233.519 334.835Z" fill="url(#paint16_linear_2_6767)"/>
<path fill-rule="evenodd" clip-rule="evenodd" d="M233.634 297.072C229.369 302.341 214.827 318.436 214.827 318.436C214.827 318.436 229.369 328.804 233.031 330.997C239.036 334.592 232.93 344.128 228.526 343.069C222.558 341.63 207.495 331.227 200.417 327.017C193.339 322.808 196.047 316.01 201.283 309.808C205.306 305.044 214.051 295.284 220.204 286.716C226.326 278.191 241.91 286.847 233.634 297.072Z" fill="#EA5455"/>
<path fill-rule="evenodd" clip-rule="evenodd" d="M214.827 318.436C212.097 321.068 210.875 322.486 211.158 322.69C211.442 322.894 213.228 321.88 216.517 319.65L214.827 318.436Z" fill="black" fill-opacity="0.159856"/>
<path fill-rule="evenodd" clip-rule="evenodd" d="M259.026 258.39C262.602 258.782 262.349 265.083 257.995 265.412C257.105 271.486 253.932 274.38 250.063 274.715L250.278 283.902L233.165 283.892C233.165 283.892 237.984 277.401 237.743 268.516C237.503 259.631 237.905 251.284 237.905 251.284L260.07 251.682L259.026 258.39Z" fill="url(#paint17_linear_2_6767)"/>
<path fill-rule="evenodd" clip-rule="evenodd" d="M252.025 241.252C265.21 244.583 259.771 258.656 259.771 258.656C255.787 258.112 251.953 262.95 250.499 267.696C246.296 272.021 240.852 272.014 237.231 269.494C233.91 259.212 232.793 252.36 233.879 248.936C235.509 243.801 240.008 238.216 252.025 241.252Z" fill="#2C272E"/>
<path fill-rule="evenodd" clip-rule="evenodd" d="M220.857 285.951C219.673 287.968 218.825 296.094 220.857 328.286C221.909 344.957 217.433 361.386 218.59 368.619C219.361 373.44 222.396 376.139 227.695 376.715L232.331 361.619L234.511 376.715C256.426 374.664 268.343 371.141 270.264 366.147C273.151 358.64 269.526 340.992 268.663 324.374C267.798 307.689 268.447 290.564 266.854 287.968C263.675 282.788 255.491 280.368 250.412 279.593C243.966 278.609 235.646 278.572 230.699 280.142C225.752 281.711 222.04 283.934 220.857 285.951Z" fill="#EA5455"/>
<path fill-rule="evenodd" clip-rule="evenodd" d="M254.304 297.415C256.898 316.574 260.367 330.017 264.711 337.745C266.507 340.941 268.331 342.258 270.184 341.697L269.744 337.452C269.305 333.155 268.889 328.729 268.663 324.374C268.506 321.337 268.398 318.285 268.318 315.308L254.304 297.415Z" fill="black" fill-opacity="0.159856"/>
<path fill-rule="evenodd" clip-rule="evenodd" d="M230.699 280.142C230.399 280.237 230.109 280.336 229.829 280.438C236.931 283.538 248.658 283.124 255.033 280.599C253.372 280.129 251.779 279.802 250.412 279.593C243.966 278.609 235.646 278.572 230.699 280.142Z" fill="#E5AA41"/>
<path fill-rule="evenodd" clip-rule="evenodd" d="M317.815 314.009C317.815 314.009 328.391 306.941 330.261 305.522C332.124 304.108 334.462 293.388 333.013 291.885C332.313 291.157 327.021 296.053 326.077 296.709C325.14 297.359 320.342 300.252 320.342 300.252C320.342 300.252 321.699 292.047 320.53 291.385C319.666 290.904 317.936 293.015 317.705 295.247C317.474 297.479 315.068 300.39 314.758 303.777C314.618 305.257 313.163 308.084 313.163 308.084L317.815 314.009Z" fill="url(#paint18_linear_2_6767)"/>
<path fill-rule="evenodd" clip-rule="evenodd" d="M254.823 300.455C258.876 308.885 265.76 321.21 269.54 328.437C274.014 336.988 279.345 340.611 290.098 334.266C299.103 328.952 312.089 320.404 318.798 315.759C325.042 311.436 317.661 300.765 311.763 304.37C303.938 309.147 283.927 318.614 283.927 318.614C283.927 318.614 273.63 299.784 269.354 290.744C263.915 279.254 246.98 284.14 254.823 300.455Z" fill="#EA5455"/>
<path fill-rule="evenodd" clip-rule="evenodd" d="M283.927 318.614C285.183 323.04 285.958 325.165 286.255 324.99C286.551 324.815 286.447 322.373 285.943 317.662L283.927 318.614Z" fill="black" fill-opacity="0.159856"/>
<path fill-rule="evenodd" clip-rule="evenodd" d="M242.209 383.618L232.742 450.664L237.706 450.598L247.173 384.319L242.209 383.618Z" fill="#BFE7FF"/>
<path fill-rule="evenodd" clip-rule="evenodd" d="M273.781 383.618L283.248 450.664L278.285 450.598L268.818 384.319L273.781 383.618Z" fill="#25A9E0"/>
<path fill-rule="evenodd" clip-rule="evenodd" d="M213.349 383.618L203.882 450.664L208.845 450.598L218.312 384.319L213.349 383.618Z" fill="#BFE7FF"/>
<path fill-rule="evenodd" clip-rule="evenodd" d="M285.216 379.74C285.216 375.42 281.718 371.917 277.402 371.917H246.161C241.427 371.917 237.471 368.312 237.028 363.595L232.033 310.433C231.589 305.716 227.633 302.11 222.9 302.11H203.292C198.226 302.11 194.119 306.222 194.119 311.293C194.119 311.528 194.128 311.762 194.146 311.996L199.296 379.083C199.663 383.867 203.648 387.562 208.442 387.562H277.402C281.718 387.562 285.216 384.06 285.216 379.74Z" fill="#BFE7FF"/>
<path fill-rule="evenodd" clip-rule="evenodd" d="M227.716 303.405L232.933 371.197C233.302 375.98 237.287 379.674 242.079 379.674H285.085L285.215 379.672C285.216 379.622 285.216 379.571 285.216 379.521C285.216 375.212 281.727 371.719 277.422 371.719H246.274C241.542 371.719 237.586 368.115 237.141 363.399L232.15 310.431C231.866 307.419 230.151 304.861 227.716 303.405Z" fill="#25A9E0"/>
<path fill-rule="evenodd" clip-rule="evenodd" d="M461.833 327.78H392.226C391.885 327.78 391.608 328.057 391.608 328.398V329.307C391.608 329.648 391.885 329.925 392.226 329.925H461.833C462.174 329.925 462.45 329.648 462.45 329.307V328.398C462.45 328.057 462.174 327.78 461.833 327.78Z" fill="url(#paint19_linear_2_6767)"/>
<path fill-rule="evenodd" clip-rule="evenodd" d="M461.839 327.78H435.095C434.754 327.78 434.478 328.057 434.478 328.398V329.307C434.478 329.648 434.754 329.925 435.095 329.925H461.839C462.181 329.925 462.457 329.648 462.457 329.307V328.398C462.457 328.057 462.181 327.78 461.839 327.78Z" fill="#104960"/>
<path fill-rule="evenodd" clip-rule="evenodd" d="M464.552 295.068H418.379C416.881 295.068 415.615 296.182 415.425 297.67L411.991 324.513C411.782 326.147 412.935 327.64 414.567 327.849C414.692 327.865 414.819 327.874 414.945 327.874H461.118C462.617 327.874 463.882 326.759 464.072 325.271L467.507 298.428C467.715 296.795 466.562 295.301 464.931 295.092C464.805 295.076 464.679 295.068 464.552 295.068Z" fill="#104960"/>
<path fill-rule="evenodd" clip-rule="evenodd" d="M463.147 295.068H417.95C416.451 295.068 415.186 296.182 414.995 297.67L411.561 324.513C411.352 326.147 412.506 327.64 414.137 327.849C414.263 327.865 414.389 327.874 414.516 327.874H459.713C461.211 327.874 462.477 326.759 462.667 325.271L466.101 298.428C466.31 296.795 465.157 295.301 463.525 295.092C463.4 295.076 463.273 295.068 463.147 295.068Z" fill="url(#paint20_linear_2_6767)"/>
<path d="M461.83 296.62H419.01C417.661 296.62 416.522 297.623 416.351 298.962L413.257 323.175C413.069 324.645 414.107 325.989 415.575 326.177C415.688 326.192 415.802 326.199 415.915 326.199H458.736C460.085 326.199 461.223 325.195 461.395 323.856L464.489 299.643C464.677 298.173 463.639 296.829 462.17 296.641C462.057 296.627 461.944 296.62 461.83 296.62Z" fill="white"/>
<path fill-rule="evenodd" clip-rule="evenodd" d="M351.312 336.413C351.312 336.413 362.564 339.04 362.45 340.072C362.339 341.108 357.384 341.267 357.384 341.267C357.384 341.267 366.543 347.232 365.813 348.396C365.084 349.56 359.114 350.871 356.636 349.932C354.157 348.993 347.732 342.163 347.732 342.163L329.708 332.473L335.733 324.519L351.312 336.413Z" fill="url(#paint21_linear_2_6767)"/>
<path fill-rule="evenodd" clip-rule="evenodd" d="M351.414 302.787C347.645 307.479 334.794 321.81 334.794 321.81C334.794 321.81 335.64 322.445 337.331 323.716L329.08 333.733C325.568 331.579 323.228 330.152 322.059 329.452C315.804 325.703 318.198 319.651 322.825 314.128C326.38 309.886 334.109 301.195 339.546 293.565C344.956 285.974 358.728 293.683 351.414 302.787Z" fill="#FFB66F"/>
<path fill-rule="evenodd" clip-rule="evenodd" d="M334.794 321.81C332.382 324.154 331.301 325.417 331.552 325.599C331.803 325.78 333.381 324.878 336.288 322.891L334.794 321.81Z" fill="black" fill-opacity="0.159856"/>
<path fill-rule="evenodd" clip-rule="evenodd" d="M336.82 322.668L326.066 333.324L331.443 336.846L338.83 324.188L336.82 322.668Z" fill="#FFEDC2"/>
<path fill-rule="evenodd" clip-rule="evenodd" d="M371.159 418.411L365.343 437.167L375.12 437.607C375.12 437.607 373.742 431.191 375.709 425.176C377.287 420.348 378.574 417.938 378.574 417.938L371.159 418.411Z" fill="url(#paint22_linear_2_6767)"/>
<path fill-rule="evenodd" clip-rule="evenodd" d="M375.2 432.114C375.2 432.114 374.995 436.889 376.662 438.399C378.327 439.907 387.163 445.478 387.903 446.6C388.643 447.723 387.557 449.093 387.557 449.093C387.557 449.093 378.536 450.509 374.281 448.324C371.208 446.745 369.013 445.456 369.013 445.456L368.071 447.882L363.145 447.174C363.145 447.174 361.627 443.324 362.279 441.409C362.931 439.494 366.297 430.548 366.297 430.548C366.297 430.548 369.265 431.07 375.2 432.114Z" fill="#391B0B"/>
<path fill-rule="evenodd" clip-rule="evenodd" d="M342.711 354.475C350.065 355.193 386.288 363.83 393.746 365.363C401.204 366.897 407.51 375.196 401.823 384.805C397.564 391.996 389.415 406.766 377.377 429.114C377.265 429.141 377.156 429.19 377.043 429.19C373.37 429.19 370.096 428.686 366.943 426.486C370.137 403.053 375.452 388.071 382.888 381.54C382.888 381.54 354.084 391.908 339.678 380.596C331.18 373.922 334.607 353.684 342.711 354.475Z" fill="#33373E"/>
<path fill-rule="evenodd" clip-rule="evenodd" d="M401.823 384.805C400.668 386.755 399.183 389.353 397.502 392.343L399.433 368.067C403.772 371.58 405.939 377.849 401.823 384.805Z" fill="white" fill-opacity="0.192499"/>
<path fill-rule="evenodd" clip-rule="evenodd" d="M425.316 416.929C425.316 416.929 428.523 431.231 432.697 432.761C434.305 433.351 422.781 435.033 422.781 435.033L419.286 421.312L425.316 416.929Z" fill="url(#paint23_linear_2_6767)"/>
<path fill-rule="evenodd" clip-rule="evenodd" d="M421.312 431.09L424.356 448.996L429.631 448.161L428.979 443.734C428.979 443.734 431.293 447.59 433.873 447.424C436.461 447.257 449.402 445.304 449.402 445.304C449.402 445.304 449.693 441.015 443.74 440.036C438.789 439.222 430.346 429.654 430.346 429.654L421.312 431.09Z" fill="#391B0B"/>
<path fill-rule="evenodd" clip-rule="evenodd" d="M348.881 352.107C341.803 367.112 343.238 377.191 353.183 382.344C367.611 389.818 406.001 380.175 406.001 380.175C406.001 380.175 405.229 386.413 406.001 391.977C408.017 406.508 417.93 424.386 418.832 427.333C419.286 428.817 430.342 426.624 430.342 424.864C430.342 423.104 424.701 383.052 423.697 374.521C422.698 365.989 419.545 364.75 410.335 362.418C408.219 361.882 380.797 355.639 378.504 355.821C365.374 356.864 355.5 355.626 348.881 352.107Z" fill="#42474F"/>
<path fill-rule="evenodd" clip-rule="evenodd" d="M378.505 355.821C380.797 355.639 408.219 361.882 410.335 362.418L411.847 362.806C419.702 364.864 422.614 366.399 423.626 373.95L423.898 376.118C424.727 382.445 426.967 397.322 428.74 409.708C426.739 405.156 425.084 400.105 423.774 394.554C420.72 381.619 421.373 370.998 420.553 369.138C419.732 367.278 379.618 361.34 372.725 360.114C369.725 359.581 368.033 358.258 367.648 356.146C370.979 356.24 374.598 356.131 378.505 355.821Z" fill="white" fill-opacity="0.192499"/>
<path fill-rule="evenodd" clip-rule="evenodd" d="M373.284 265.736C376.471 266.085 376.245 271.7 372.366 271.994C371.573 277.407 368.745 279.986 365.298 280.284L365.489 288.472L350.24 288.463C350.24 288.463 354.534 282.679 354.32 274.76C354.106 266.842 354.463 259.403 354.463 259.403L374.215 259.758L373.284 265.736Z" fill="url(#paint24_linear_2_6767)"/>
<path fill-rule="evenodd" clip-rule="evenodd" d="M373.978 266.157C370.266 264.685 367.524 271.019 364.684 275.421C361.844 279.824 354.486 279.076 353.472 275.421C349.633 267.418 346.324 256.537 350.805 255.644C351.435 244.076 381.644 246.807 373.978 266.157Z" fill="#9E5229"/>
<path fill-rule="evenodd" clip-rule="evenodd" d="M353.023 251.266C351.729 252.367 350.903 253.83 350.804 255.644C346.324 256.537 349.633 267.418 353.472 275.421C354.415 278.819 360.842 279.704 364.023 276.273C366.925 267.565 365.686 257.827 359.821 251.267L353.023 251.266Z" fill="black" fill-opacity="0.199355"/>
<path d="M357.288 254.916C355.277 254.916 353.647 253.282 353.647 251.267C353.647 249.252 355.277 247.618 357.288 247.618C359.299 247.618 360.929 249.252 360.929 251.267C360.929 253.282 359.299 254.916 357.288 254.916Z" fill="#FB9934"/>
<path fill-rule="evenodd" clip-rule="evenodd" d="M377.012 289.854C380.388 294.812 386.015 311.637 386.334 315.422C386.693 319.788 382.011 326.743 381.934 333.063C381.865 339.384 385.426 355.207 384.356 356.985C383.295 358.763 348.041 369.042 346.055 368.198C344.069 367.353 337.213 358.243 338.779 354.541C340.354 350.839 346.862 342.441 346.117 337.396C345.381 332.353 341.106 313.734 338.983 307.397C336.868 301.06 337.573 294.407 341.52 291.681C343.472 290.331 348.683 286.498 357.962 286.515C367.241 286.533 376.751 289.47 377.012 289.854Z" fill="#FF9F43"/>
<path fill-rule="evenodd" clip-rule="evenodd" d="M384.581 311.358L368.403 299.722L368.408 301.848C368.467 314.972 369.293 321.924 383.024 343.431L382.706 341.239C382.259 338.057 381.912 335.078 381.934 333.063C381.982 329.076 383.864 324.835 385.156 321.152L384.581 311.358Z" fill="black" fill-opacity="0.159856"/>
<path fill-rule="evenodd" clip-rule="evenodd" d="M366.535 286.153C366.796 287.574 366.356 288.285 365.216 288.285C363.507 288.285 352.04 288.663 350.488 287.988C349.452 287.539 349.09 286.927 349.401 286.153H366.535Z" fill="#FFF6E1"/>
<path fill-rule="evenodd" clip-rule="evenodd" d="M423.685 315.411C423.685 315.411 433.022 309.173 434.673 307.92C436.318 306.672 438.382 297.212 437.102 295.885C436.484 295.242 431.813 299.564 430.98 300.143C430.152 300.716 425.916 303.269 425.916 303.269C425.916 303.269 427.115 296.028 426.083 295.444C425.319 295.019 423.793 296.883 423.588 298.852C423.384 300.822 421.261 303.392 420.987 306.38C420.863 307.686 420.38 309.379 420.38 309.379L394.472 320.516L397.183 332.626L423.685 315.411Z" fill="url(#paint25_linear_2_6767)"/>
<path fill-rule="evenodd" clip-rule="evenodd" d="M368.075 303.448C371.653 310.889 377.73 321.766 381.068 328.144C385.017 335.691 389.724 338.889 399.217 333.288C399.957 332.851 401.129 332.146 402.731 331.172L396.854 318.11C394.797 319.02 393.769 319.475 393.769 319.475C393.769 319.475 384.678 302.857 380.904 294.878C376.102 284.738 361.151 289.05 368.075 303.448Z" fill="#FFB66F"/>
<path fill-rule="evenodd" clip-rule="evenodd" d="M393.769 319.475C394.877 323.381 395.562 325.256 395.824 325.102C396.085 324.948 395.993 322.792 395.548 318.635L393.769 319.475Z" fill="black" fill-opacity="0.159856"/>
<path fill-rule="evenodd" clip-rule="evenodd" d="M396.77 317.533L400.864 333.794L406.954 330.497L398.962 316.267L396.77 317.533Z" fill="#FFEDC2"/>
<path fill-rule="evenodd" clip-rule="evenodd" d="M357.678 248.57C357.678 248.57 354.246 244.173 350.283 245.326C346.32 246.48 342.735 253.551 344.437 260.199C346.131 266.847 344.734 270.638 342.679 275.118C337.16 287.17 356.269 294.823 356.269 294.823C355.275 288.869 355.745 284.095 357.678 280.5C360.665 274.946 362.361 267.824 362.361 263.466C362.361 255.888 357.678 248.57 357.678 248.57Z" fill="#9E5229"/>
<path fill-rule="evenodd" clip-rule="evenodd" d="M357.114 383.618L366.581 450.664L361.618 450.598L352.151 384.319L357.114 383.618Z" fill="#25A9E0"/>
<path fill-rule="evenodd" clip-rule="evenodd" d="M384.663 383.618L394.13 450.664L389.167 450.598L379.7 384.319L384.663 383.618Z" fill="#25A9E0"/>
<path fill-rule="evenodd" clip-rule="evenodd" d="M324.231 383.618L314.764 450.664L319.727 450.598L329.194 384.319L324.231 383.618Z" fill="#BFE7FF"/>
<path fill-rule="evenodd" clip-rule="evenodd" d="M396.098 379.74C396.098 375.42 392.599 371.917 388.284 371.917H357.042C352.309 371.917 348.353 368.312 347.91 363.595L342.914 310.433C342.471 305.716 338.515 302.11 333.781 302.11H314.174C309.108 302.11 305.001 306.222 305.001 311.293C305.001 311.528 305.01 311.762 305.028 311.996L310.177 379.083C310.545 383.867 314.53 387.562 319.324 387.562H388.284C392.599 387.562 396.098 384.06 396.098 379.74Z" fill="#BFE7FF"/>
<path fill-rule="evenodd" clip-rule="evenodd" d="M338.597 303.405L343.815 371.197C344.183 375.98 348.168 379.674 352.961 379.674H395.967L396.096 379.672C396.097 379.622 396.098 379.571 396.098 379.521C396.098 375.212 392.608 371.719 388.304 371.719H357.156C352.423 371.719 348.467 368.115 348.023 363.399L343.032 310.431C342.748 307.419 341.033 304.861 338.597 303.405Z" fill="#25A9E0"/>
<defs>
<filter id="filter0_dd_2_6767" x="55.1658" y="67.1346" width="168.35" height="98.59" filterUnits="userSpaceOnUse" color-interpolation-filters="sRGB">
<feFlood flood-opacity="0" result="BackgroundImageFix"/>
<feColorMatrix in="SourceAlpha" type="matrix" values="0 0 0 0 0 0 0 0 0 0 0 0 0 0 0 0 0 0 127 0" result="hardAlpha"/>
<feOffset dx="8" dy="9"/>
<feGaussianBlur stdDeviation="14"/>
<feColorMatrix type="matrix" values="0 0 0 0 0.0755213 0 0 0 0 0.582569 0 0 0 0 0.878793 0 0 0 0.229458 0"/>
<feBlend mode="normal" in2="BackgroundImageFix" result="effect1_dropShadow_2_6767"/>
<feColorMatrix in="SourceAlpha" type="matrix" values="0 0 0 0 0 0 0 0 0 0 0 0 0 0 0 0 0 0 127 0" result="hardAlpha"/>
<feOffset dy="2"/>
<feGaussianBlur stdDeviation="7.5"/>
<feColorMatrix type="matrix" values="0 0 0 0 0.503982 0 0 0 0 0.700178 0 0 0 0 1 0 0 0 0.233829 0"/>
<feBlend mode="normal" in2="effect1_dropShadow_2_6767" result="effect2_dropShadow_2_6767"/>
<feBlend mode="normal" in="SourceGraphic" in2="effect2_dropShadow_2_6767" result="shape"/>
</filter>
<filter id="filter1_dd_2_6767" x="55.1658" y="115.651" width="195.773" height="174.161" filterUnits="userSpaceOnUse" color-interpolation-filters="sRGB">
<feFlood flood-opacity="0" result="BackgroundImageFix"/>
<feColorMatrix in="SourceAlpha" type="matrix" values="0 0 0 0 0 0 0 0 0 0 0 0 0 0 0 0 0 0 127 0" result="hardAlpha"/>
<feOffset dx="8" dy="9"/>
<feGaussianBlur stdDeviation="14"/>
<feColorMatrix type="matrix" values="0 0 0 0 0.0755213 0 0 0 0 0.582569 0 0 0 0 0.878793 0 0 0 0.229458 0"/>
<feBlend mode="normal" in2="BackgroundImageFix" result="effect1_dropShadow_2_6767"/>
<feColorMatrix in="SourceAlpha" type="matrix" values="0 0 0 0 0 0 0 0 0 0 0 0 0 0 0 0 0 0 127 0" result="hardAlpha"/>
<feOffset dy="2"/>
<feGaussianBlur stdDeviation="7.5"/>
<feColorMatrix type="matrix" values="0 0 0 0 0.503982 0 0 0 0 0.700178 0 0 0 0 1 0 0 0 0.233829 0"/>
<feBlend mode="normal" in2="effect1_dropShadow_2_6767" result="effect2_dropShadow_2_6767"/>
<feBlend mode="normal" in="SourceGraphic" in2="effect2_dropShadow_2_6767" result="shape"/>
</filter>
<filter id="filter2_f_2_6767" x="86.4062" y="165.495" width="120.416" height="67.4288" filterUnits="userSpaceOnUse" color-interpolation-filters="sRGB">
<feFlood flood-opacity="0" result="BackgroundImageFix"/>
<feBlend mode="normal" in="SourceGraphic" in2="BackgroundImageFix" result="shape"/>
<feGaussianBlur stdDeviation="3.75" result="effect1_foregroundBlur_2_6767"/>
</filter>
<filter id="filter3_d_2_6767" x="226.803" y="87.09" width="230.704" height="169.047" filterUnits="userSpaceOnUse" color-interpolation-filters="sRGB">
<feFlood flood-opacity="0" result="BackgroundImageFix"/>
<feColorMatrix in="SourceAlpha" type="matrix" values="0 0 0 0 0 0 0 0 0 0 0 0 0 0 0 0 0 0 127 0" result="hardAlpha"/>
<feOffset dx="6" dy="6"/>
<feGaussianBlur stdDeviation="8"/>
<feColorMatrix type="matrix" values="0 0 0 0 0.70188 0 0 0 0 0.70188 0 0 0 0 0.70188 0 0 0 0.208725 0"/>
<feBlend mode="normal" in2="BackgroundImageFix" result="effect1_dropShadow_2_6767"/>
<feBlend mode="normal" in="SourceGraphic" in2="effect1_dropShadow_2_6767" result="shape"/>
</filter>
<linearGradient id="paint0_linear_2_6767" x1="441.821" y1="256.274" x2="435.948" y2="297.677" gradientUnits="userSpaceOnUse">
<stop stop-color="#FFAFAF"/>
<stop offset="1" stop-color="#F07777"/>
</linearGradient>
<linearGradient id="paint1_linear_2_6767" x1="444.149" y1="250.955" x2="438.632" y2="275.064" gradientUnits="userSpaceOnUse">
<stop stop-color="#FDC6C6"/>
<stop offset="1" stop-color="#FAB2B2"/>
</linearGradient>
<linearGradient id="paint2_linear_2_6767" x1="404.591" y1="424.397" x2="403.269" y2="441.41" gradientUnits="userSpaceOnUse">
<stop stop-color="#FDC6C6"/>
<stop offset="1" stop-color="#FAB2B2"/>
</linearGradient>
<linearGradient id="paint3_linear_2_6767" x1="432.18" y1="430.743" x2="392.334" y2="356.411" gradientUnits="userSpaceOnUse">
<stop stop-color="#28324F"/>
<stop offset="1" stop-color="#222735"/>
</linearGradient>
<linearGradient id="paint4_linear_2_6767" x1="378.974" y1="283.222" x2="377.664" y2="306.925" gradientUnits="userSpaceOnUse">
<stop stop-color="#FDC6C6"/>
<stop offset="1" stop-color="#FAB2B2"/>
</linearGradient>
<linearGradient id="paint5_linear_2_6767" x1="440.418" y1="315.156" x2="439.878" y2="319.595" gradientUnits="userSpaceOnUse">
<stop stop-color="#FDC6C6"/>
<stop offset="1" stop-color="#FAB2B2"/>
</linearGradient>
<linearGradient id="paint6_linear_2_6767" x1="197.847" y1="178.436" x2="195.06" y2="179.877" gradientUnits="userSpaceOnUse">
<stop stop-color="#4D63A0"/>
<stop offset="1" stop-color="#222735"/>
</linearGradient>
<linearGradient id="paint7_linear_2_6767" x1="108.122" y1="334.104" x2="108.122" y2="347.823" gradientUnits="userSpaceOnUse">
<stop stop-color="#FE62BE"/>
<stop offset="1" stop-color="#FDB3A8"/>
</linearGradient>
<linearGradient id="paint8_linear_2_6767" x1="82.4253" y1="323.957" x2="83.8617" y2="337.599" gradientUnits="userSpaceOnUse">
<stop stop-color="#FE62BE"/>
<stop offset="1" stop-color="#FDB3A8"/>
</linearGradient>
<linearGradient id="paint9_linear_2_6767" x1="535.069" y1="423.181" x2="533.744" y2="440.216" gradientUnits="userSpaceOnUse">
<stop stop-color="#FDC6C6"/>
<stop offset="1" stop-color="#FAB2B2"/>
</linearGradient>
<linearGradient id="paint10_linear_2_6767" x1="522.575" y1="274.596" x2="519.596" y2="324.751" gradientUnits="userSpaceOnUse">
<stop stop-color="#FDC6C6"/>
<stop offset="1" stop-color="#FAB2B2"/>
</linearGradient>
<linearGradient id="paint11_linear_2_6767" x1="574.004" y1="252.613" x2="568.186" y2="294.108" gradientUnits="userSpaceOnUse">
<stop stop-color="#FFAFAF"/>
<stop offset="1" stop-color="#F07777"/>
</linearGradient>
<linearGradient id="paint12_linear_2_6767" x1="576.24" y1="247.297" x2="570.713" y2="271.437" gradientUnits="userSpaceOnUse">
<stop stop-color="#FDC6C6"/>
<stop offset="1" stop-color="#FAB2B2"/>
</linearGradient>
<linearGradient id="paint13_linear_2_6767" x1="501.876" y1="427.518" x2="500.576" y2="442.187" gradientUnits="userSpaceOnUse">
<stop stop-color="#FDC6C6"/>
<stop offset="1" stop-color="#FAB2B2"/>
</linearGradient>
<linearGradient id="paint14_linear_2_6767" x1="584.34" y1="316.193" x2="583.067" y2="327.913" gradientUnits="userSpaceOnUse">
<stop stop-color="#FDC6C6"/>
<stop offset="1" stop-color="#FAB2B2"/>
</linearGradient>
<linearGradient id="paint15_linear_2_6767" x1="499.336" y1="274.909" x2="509.224" y2="314.505" gradientUnits="userSpaceOnUse">
<stop stop-color="#9FF6EC"/>
<stop offset="1" stop-color="#7D9DFF"/>
</linearGradient>
<linearGradient id="paint16_linear_2_6767" x1="232.547" y1="328.974" x2="242.924" y2="350.284" gradientUnits="userSpaceOnUse">
<stop stop-color="#FDC6C6"/>
<stop offset="1" stop-color="#A47070"/>
</linearGradient>
<linearGradient id="paint17_linear_2_6767" x1="248.982" y1="242.09" x2="246.801" y2="280.953" gradientUnits="userSpaceOnUse">
<stop stop-color="#FDC6C6"/>
<stop offset="1" stop-color="#A47070"/>
</linearGradient>
<linearGradient id="paint18_linear_2_6767" x1="324.565" y1="284.92" x2="323.003" y2="311.96" gradientUnits="userSpaceOnUse">
<stop stop-color="#FDC6C6"/>
<stop offset="1" stop-color="#A47070"/>
</linearGradient>
<linearGradient id="paint19_linear_2_6767" x1="413.804" y1="327.292" x2="413.804" y2="329.925" gradientUnits="userSpaceOnUse">
<stop stop-color="#9FF6EC"/>
<stop offset="1" stop-color="#7D9DFF"/>
</linearGradient>
<linearGradient id="paint20_linear_2_6767" x1="428.64" y1="287.603" x2="428.64" y2="327.874" gradientUnits="userSpaceOnUse">
<stop stop-color="#9FF6EC"/>
<stop offset="1" stop-color="#7D9DFF"/>
</linearGradient>
<linearGradient id="paint21_linear_2_6767" x1="334.714" y1="313.626" x2="353.508" y2="351.667" gradientUnits="userSpaceOnUse">
<stop stop-color="#FDC6C6"/>
<stop offset="1" stop-color="#FFCCA1"/>
</linearGradient>
<linearGradient id="paint22_linear_2_6767" x1="372.42" y1="412.394" x2="371.402" y2="435.822" gradientUnits="userSpaceOnUse">
<stop stop-color="#FDC6C6"/>
<stop offset="1" stop-color="#FAB2B2"/>
</linearGradient>
<linearGradient id="paint23_linear_2_6767" x1="426.655" y1="411.826" x2="425.611" y2="433.391" gradientUnits="userSpaceOnUse">
<stop stop-color="#FDC6C6"/>
<stop offset="1" stop-color="#FAB2B2"/>
</linearGradient>
<linearGradient id="paint24_linear_2_6767" x1="364.334" y1="251.21" x2="362.39" y2="285.843" gradientUnits="userSpaceOnUse">
<stop stop-color="#FDC6C6"/>
<stop offset="1" stop-color="#FFCCA1"/>
</linearGradient>
<linearGradient id="paint25_linear_2_6767" x1="419.294" y1="292.235" x2="416.812" y2="325.496" gradientUnits="userSpaceOnUse">
<stop stop-color="#FDC6C6"/>
<stop offset="1" stop-color="#FFCCA1"/>
</linearGradient>
</defs>
</svg>
