<svg width="38" height="39" viewBox="0 0 38 39" fill="none" xmlns="http://www.w3.org/2000/svg">
<g id="vuesax/bold/verify">
<g id="verify">
<path id="Vector" d="M34.1369 17.9399L31.9836 15.4383C31.5719 14.9633 31.2394 14.0766 31.2394 13.4433V10.7516C31.2394 9.07328 29.8619 7.69578 28.1836 7.69578H25.4919C24.8744 7.69578 23.9719 7.36328 23.4969 6.95161L20.9952 4.79828C19.9027 3.86411 18.1136 3.86411 17.0052 4.79828L14.5194 6.96745C14.0444 7.36328 13.1419 7.69578 12.5244 7.69578H9.78522C8.10689 7.69578 6.72939 9.07328 6.72939 10.7516V13.4591C6.72939 14.0766 6.39689 14.9633 6.00105 15.4383L3.86355 17.9558C2.94522 19.0483 2.94522 20.8216 3.86355 21.9141L6.00105 24.4316C6.39689 24.9066 6.72939 25.7933 6.72939 26.4108V29.1183C6.72939 30.7966 8.10689 32.1741 9.78522 32.1741H12.5244C13.1419 32.1741 14.0444 32.5066 14.5194 32.9183L17.0211 35.0716C18.1136 36.0058 19.9027 36.0058 21.0111 35.0716L23.5127 32.9183C23.9877 32.5066 24.8744 32.1741 25.5077 32.1741H28.1994C29.8777 32.1741 31.2552 30.7966 31.2552 29.1183V26.4266C31.2552 25.8091 31.5877 24.9066 31.9994 24.4316L34.1527 21.9299C35.0711 20.8374 35.0711 19.0324 34.1369 17.9399ZM25.5869 16.9424L17.9394 24.5899C17.7177 24.8116 17.4169 24.9383 17.1002 24.9383C16.7836 24.9383 16.4827 24.8116 16.2611 24.5899L12.4294 20.7583C11.9702 20.2991 11.9702 19.5391 12.4294 19.0799C12.8886 18.6208 13.6486 18.6208 14.1077 19.0799L17.1002 22.0724L23.9086 15.2641C24.3677 14.8049 25.1277 14.8049 25.5869 15.2641C26.0461 15.7233 26.0461 16.4833 25.5869 16.9424Z" fill="#039855"/>
</g>
</g>
</svg>
