<svg width="24" height="24" viewBox="0 0 24 24" fill="none" xmlns="http://www.w3.org/2000/svg">
<g id="clarity:flag-line" clip-path="url(#clip0_2788_97185)">
<path id="Vector" d="M4.00016 22.6654C3.82335 22.6654 3.65378 22.5951 3.52876 22.4701C3.40373 22.3451 3.3335 22.1755 3.3335 21.9987V1.9987C3.3335 1.82189 3.40373 1.65232 3.52876 1.52729C3.65378 1.40227 3.82335 1.33203 4.00016 1.33203C4.17697 1.33203 4.34654 1.40227 4.47157 1.52729C4.59659 1.65232 4.66683 1.82189 4.66683 1.9987V21.9987C4.66683 22.1755 4.59659 22.3451 4.47157 22.4701C4.34654 22.5951 4.17697 22.6654 4.00016 22.6654Z" fill="#104960"/>
<path id="Vector_2" d="M20.3667 2.55041C20.2653 2.4919 20.1504 2.46109 20.0333 2.46109C19.9163 2.46109 19.8013 2.4919 19.7 2.55041C18.4076 3.09368 17.0149 3.35724 15.6133 3.32374C14.4058 3.2354 13.2299 2.89714 12.16 2.33041C11.127 1.7829 9.99233 1.45385 8.82667 1.36374C7.8578 1.35279 6.8966 1.53641 6 1.90374V3.39041C6.86856 2.91518 7.84326 2.66749 8.83333 2.67041C9.81376 2.76768 10.7653 3.05767 11.6333 3.52374C12.8734 4.1713 14.2368 4.54848 15.6333 4.63041C16.8871 4.63478 18.1344 4.45049 19.3333 4.08374V12.6371C18.1394 13.0609 16.8801 13.2707 15.6133 13.2571C14.4058 13.1687 13.2299 12.8305 12.16 12.2637C11.127 11.7162 9.99233 11.3872 8.82667 11.2971C7.85598 11.2946 6.89471 11.4873 6 11.8637V13.3371C6.86856 12.8618 7.84326 12.6142 8.83333 12.6171C9.81376 12.7143 10.7653 13.0043 11.6333 13.4704C12.8734 14.118 14.2368 14.4952 15.6333 14.5771C17.2363 14.6104 18.8278 14.2989 20.3 13.6637C20.4099 13.6083 20.5024 13.5236 20.5671 13.4189C20.6318 13.3141 20.6663 13.1935 20.6667 13.0704V3.11708C20.6683 3.00502 20.6417 2.89436 20.5893 2.79531C20.5368 2.69627 20.4603 2.61204 20.3667 2.55041Z" fill="#104960"/>
</g>
<defs>
<clipPath id="clip0_2788_97185">
<rect width="24" height="24" fill="white"/>
</clipPath>
</defs>
</svg>
