<svg width="20" height="20" viewBox="0 0 20 20" fill="none" xmlns="http://www.w3.org/2000/svg">
<path d="M9.99993 13.6073C8.00827 13.6073 6.3916 11.9906 6.3916 9.99896C6.3916 8.00729 8.00827 6.39062 9.99993 6.39062C11.9916 6.39062 13.6083 8.00729 13.6083 9.99896C13.6083 11.9906 11.9916 13.6073 9.99993 13.6073ZM9.99993 7.64062C8.69993 7.64062 7.6416 8.69896 7.6416 9.99896C7.6416 11.299 8.69993 12.3573 9.99993 12.3573C11.2999 12.3573 12.3583 11.299 12.3583 9.99896C12.3583 8.69896 11.2999 7.64062 9.99993 7.64062Z" fill="#667085"/>
<path d="M10.0004 17.5177C6.86706 17.5177 3.90872 15.6844 1.87539 12.501C0.992057 11.126 0.992057 8.88437 1.87539 7.50104C3.91706 4.31771 6.87539 2.48438 10.0004 2.48438C13.1254 2.48438 16.0837 4.31771 18.1171 7.50104C19.0004 8.87604 19.0004 11.1177 18.1171 12.501C16.0837 15.6844 13.1254 17.5177 10.0004 17.5177ZM10.0004 3.73438C7.30872 3.73438 4.73372 5.35104 2.93372 8.17604C2.30872 9.15104 2.30872 10.851 2.93372 11.826C4.73372 14.651 7.30872 16.2677 10.0004 16.2677C12.6921 16.2677 15.2671 14.651 17.0671 11.826C17.6921 10.851 17.6921 9.15104 17.0671 8.17604C15.2671 5.35104 12.6921 3.73438 10.0004 3.73438Z" fill="#667085"/>
</svg>
