<svg width="20" height="18" viewBox="0 0 20 18" fill="none" xmlns="http://www.w3.org/2000/svg">
<path d="M13.3333 12.3352L9.99997 9.00186M9.99997 9.00186L6.66663 12.3352M9.99997 9.00186V16.5019M16.9916 14.3269C17.8044 13.8838 18.4465 13.1826 18.8165 12.334C19.1866 11.4855 19.2635 10.5379 19.0351 9.64077C18.8068 8.74365 18.2862 7.94812 17.5555 7.37973C16.8248 6.81134 15.9257 6.50247 15 6.50186H13.95C13.6977 5.52623 13.2276 4.62047 12.5749 3.85269C11.9222 3.0849 11.104 2.47507 10.1817 2.06903C9.25943 1.663 8.25709 1.47132 7.25006 1.50843C6.24304 1.54553 5.25752 1.81044 4.36761 2.28325C3.47771 2.75605 2.70656 3.42444 2.11215 4.23818C1.51774 5.05191 1.11554 5.98981 0.935783 6.98135C0.756025 7.9729 0.803388 8.9923 1.07431 9.96291C1.34523 10.9335 1.83267 11.8301 2.49997 12.5852" stroke="#101828" stroke-width="1.67" stroke-linecap="round" stroke-linejoin="round"/>
</svg>
