<svg width="20" height="20" viewBox="0 0 20 20" fill="none" xmlns="http://www.w3.org/2000/svg">
<g id="Iconsax/Bold/tickcircle">
<path id="Vector" d="M10.0002 1.66797C5.40854 1.66797 1.66687 5.40963 1.66687 10.0013C1.66687 14.593 5.40854 18.3346 10.0002 18.3346C14.5919 18.3346 18.3335 14.593 18.3335 10.0013C18.3335 5.40963 14.5919 1.66797 10.0002 1.66797ZM13.9835 8.08463L9.25854 12.8096C9.14135 12.9267 8.98249 12.9924 8.81687 12.9924C8.65124 12.9924 8.49239 12.9267 8.3752 12.8096L6.01687 10.4513C5.90064 10.3337 5.83545 10.175 5.83545 10.0096C5.83545 9.84428 5.90064 9.68558 6.01687 9.56797C6.25854 9.3263 6.65854 9.3263 6.9002 9.56797L8.81687 11.4846L13.1002 7.2013C13.3419 6.95963 13.7419 6.95963 13.9835 7.2013C14.2252 7.44297 14.2252 7.83463 13.9835 8.08463Z" fill="#079B56"/>
</g>
</svg>
