<svg width="24" height="21" viewBox="0 0 24 21" fill="none" xmlns="http://www.w3.org/2000/svg">
<path d="M1 20.0017H23M19.78 20.0117V15.5517M2.1 20.0017V4.03172C2.1 2.02172 3.1 1.01172 5.09 1.01172H11.32C13.31 1.01172 14.3 2.02172 14.3 4.03172V20.0017M5.8 6.25172H10.75M5.8 10.0017H10.75M8.25 20.0017V16.2517M19.8 8.89172C18.58 8.89172 17.6 9.87172 17.6 11.0917V13.3617C17.6 14.5817 18.58 15.5617 19.8 15.5617C21.02 15.5617 22 14.5817 22 13.3617V11.0917C22 9.87172 21.02 8.89172 19.8 8.89172Z" stroke="white" stroke-width="1.5" stroke-miterlimit="10" stroke-linecap="round" stroke-linejoin="round"/>
</svg>
