<svg width="20" height="21" viewBox="0 0 20 21" fill="none" xmlns="http://www.w3.org/2000/svg">
<g id="vuesax/outline/calendar">
<g id="calendar">
<path id="Vector" d="M6.66675 5.29163C6.32508 5.29163 6.04175 5.00829 6.04175 4.66663V2.16663C6.04175 1.82496 6.32508 1.54163 6.66675 1.54163C7.00841 1.54163 7.29175 1.82496 7.29175 2.16663V4.66663C7.29175 5.00829 7.00841 5.29163 6.66675 5.29163Z" fill="#F04438"/>
<path id="Vector_2" d="M13.3333 5.29163C12.9916 5.29163 12.7083 5.00829 12.7083 4.66663V2.16663C12.7083 1.82496 12.9916 1.54163 13.3333 1.54163C13.6749 1.54163 13.9583 1.82496 13.9583 2.16663V4.66663C13.9583 5.00829 13.6749 5.29163 13.3333 5.29163Z" fill="#F04438"/>
<path id="Vector_3" d="M7.08333 12.5833C6.975 12.5833 6.86667 12.5583 6.76667 12.5167C6.65833 12.475 6.575 12.4166 6.49167 12.3416C6.34167 12.1833 6.25 11.975 6.25 11.75C6.25 11.6416 6.275 11.5333 6.31667 11.4333C6.35833 11.3333 6.41667 11.2416 6.49167 11.1583C6.575 11.0833 6.65833 11.025 6.76667 10.9833C7.06667 10.8583 7.44167 10.925 7.675 11.1583C7.825 11.3166 7.91667 11.5333 7.91667 11.75C7.91667 11.8 7.90833 11.8583 7.9 11.9167C7.89167 11.9667 7.875 12.0166 7.85 12.0666C7.83333 12.1166 7.80833 12.1666 7.775 12.2166C7.75 12.2583 7.70833 12.3 7.675 12.3416C7.51667 12.4916 7.3 12.5833 7.08333 12.5833Z" fill="#F04438"/>
<path id="Vector_4" d="M10.0001 12.5833C9.89175 12.5833 9.78341 12.5584 9.68341 12.5167C9.57508 12.475 9.49175 12.4167 9.40842 12.3417C9.25842 12.1833 9.16675 11.975 9.16675 11.75C9.16675 11.6417 9.19175 11.5333 9.23342 11.4333C9.27508 11.3333 9.33342 11.2417 9.40842 11.1584C9.49175 11.0834 9.57508 11.025 9.68341 10.9833C9.98341 10.85 10.3584 10.925 10.5917 11.1584C10.7417 11.3167 10.8334 11.5333 10.8334 11.75C10.8334 11.8 10.8251 11.8584 10.8167 11.9167C10.8084 11.9667 10.7917 12.0167 10.7667 12.0667C10.7501 12.1167 10.7251 12.1667 10.6917 12.2167C10.6667 12.2583 10.6251 12.3 10.5917 12.3417C10.4334 12.4917 10.2167 12.5833 10.0001 12.5833Z" fill="#F04438"/>
<path id="Vector_5" d="M12.9166 12.5833C12.8083 12.5833 12.6999 12.5584 12.5999 12.5167C12.4916 12.475 12.4083 12.4167 12.3249 12.3417C12.2916 12.3 12.2583 12.2583 12.2249 12.2167C12.1916 12.1667 12.1666 12.1167 12.1499 12.0667C12.1249 12.0167 12.1083 11.9667 12.0999 11.9167C12.0916 11.8584 12.0833 11.8 12.0833 11.75C12.0833 11.5333 12.1749 11.3167 12.3249 11.1584C12.4083 11.0834 12.4916 11.025 12.5999 10.9833C12.9083 10.85 13.2749 10.925 13.5083 11.1584C13.6583 11.3167 13.7499 11.5333 13.7499 11.75C13.7499 11.8 13.7416 11.8584 13.7333 11.9167C13.7249 11.9667 13.7083 12.0167 13.6833 12.0667C13.6666 12.1167 13.6416 12.1667 13.6083 12.2167C13.5833 12.2583 13.5416 12.3 13.5083 12.3417C13.3499 12.4917 13.1333 12.5833 12.9166 12.5833Z" fill="#F04438"/>
<path id="Vector_6" d="M7.08333 15.5C6.975 15.5 6.86667 15.475 6.76667 15.4333C6.66667 15.3917 6.575 15.3333 6.49167 15.2583C6.34167 15.1 6.25 14.8833 6.25 14.6667C6.25 14.5583 6.275 14.45 6.31667 14.35C6.35833 14.2417 6.41667 14.15 6.49167 14.075C6.8 13.7667 7.36667 13.7667 7.675 14.075C7.825 14.2333 7.91667 14.45 7.91667 14.6667C7.91667 14.8833 7.825 15.1 7.675 15.2583C7.51667 15.4083 7.3 15.5 7.08333 15.5Z" fill="#F04438"/>
<path id="Vector_7" d="M10.0001 15.5C9.78341 15.5 9.56675 15.4083 9.40842 15.2583C9.25842 15.1 9.16675 14.8833 9.16675 14.6667C9.16675 14.5583 9.19175 14.45 9.23342 14.35C9.27508 14.2417 9.33342 14.15 9.40842 14.075C9.71675 13.7667 10.2834 13.7667 10.5917 14.075C10.6667 14.15 10.7251 14.2417 10.7667 14.35C10.8084 14.45 10.8334 14.5583 10.8334 14.6667C10.8334 14.8833 10.7417 15.1 10.5917 15.2583C10.4334 15.4083 10.2167 15.5 10.0001 15.5Z" fill="#F04438"/>
<path id="Vector_8" d="M12.9166 15.5C12.6999 15.5 12.4833 15.4084 12.3249 15.2584C12.2499 15.1834 12.1916 15.0917 12.1499 14.9834C12.1083 14.8834 12.0833 14.775 12.0833 14.6667C12.0833 14.5584 12.1083 14.45 12.1499 14.35C12.1916 14.2417 12.2499 14.1501 12.3249 14.0751C12.5166 13.8834 12.8083 13.7917 13.0749 13.85C13.1333 13.8584 13.1833 13.875 13.2333 13.9C13.2833 13.9167 13.3333 13.9417 13.3833 13.9751C13.4249 14.0001 13.4666 14.0417 13.5083 14.0751C13.6583 14.2334 13.7499 14.45 13.7499 14.6667C13.7499 14.8834 13.6583 15.1 13.5083 15.2584C13.3499 15.4084 13.1333 15.5 12.9166 15.5Z" fill="#F04438"/>
<path id="Vector_9" d="M17.0834 8.69995H2.91675C2.57508 8.69995 2.29175 8.41662 2.29175 8.07495C2.29175 7.73328 2.57508 7.44995 2.91675 7.44995H17.0834C17.4251 7.44995 17.7084 7.73328 17.7084 8.07495C17.7084 8.41662 17.4251 8.69995 17.0834 8.69995Z" fill="#F04438"/>
<path id="Vector_10" d="M13.3333 19.4583H6.66667C3.625 19.4583 1.875 17.7083 1.875 14.6666V7.58329C1.875 4.54163 3.625 2.79163 6.66667 2.79163H13.3333C16.375 2.79163 18.125 4.54163 18.125 7.58329V14.6666C18.125 17.7083 16.375 19.4583 13.3333 19.4583ZM6.66667 4.04163C4.28333 4.04163 3.125 5.19996 3.125 7.58329V14.6666C3.125 17.05 4.28333 18.2083 6.66667 18.2083H13.3333C15.7167 18.2083 16.875 17.05 16.875 14.6666V7.58329C16.875 5.19996 15.7167 4.04163 13.3333 4.04163H6.66667Z" fill="#F04438"/>
</g>
</g>
</svg>
