<svg width="29" height="28" viewBox="0 0 29 28" fill="none" xmlns="http://www.w3.org/2000/svg">
<g id="Iconsax/Bold/add">
<path id="Vector" d="M19.387 2.33203H9.61036C5.3637 2.33203 2.83203 4.8637 2.83203 9.11036V18.8754C2.83203 23.1337 5.3637 25.6654 9.61036 25.6654H19.3754C23.622 25.6654 26.1537 23.1337 26.1537 18.887V9.11036C26.1654 4.8637 23.6337 2.33203 19.387 2.33203ZM21.4987 14.8737H15.3737V20.9987C15.3737 21.477 14.977 21.8737 14.4987 21.8737C14.0204 21.8737 13.6237 21.477 13.6237 20.9987V14.8737H7.4987C7.02036 14.8737 6.6237 14.477 6.6237 13.9987C6.6237 13.5204 7.02036 13.1237 7.4987 13.1237H13.6237V6.9987C13.6237 6.52036 14.0204 6.1237 14.4987 6.1237C14.977 6.1237 15.3737 6.52036 15.3737 6.9987V13.1237H21.4987C21.977 13.1237 22.3737 13.5204 22.3737 13.9987C22.3737 14.477 21.977 14.8737 21.4987 14.8737Z" fill="#104960"/>
<path id="Rectangle 3463851" d="M11 5.83203H18V13.1237H11V5.83203Z" fill="#104960"/>
<path id="Rectangle 3463852" d="M11 14.8789H18V22.1656H11V14.8789Z" fill="#104960"/>
</g>
</svg>
