<svg width="22" height="23" viewBox="0 0 22 23" fill="none" xmlns="http://www.w3.org/2000/svg">
<g id="&#240;&#159;&#152;&#128; Icon">
<g id="Box">
<g id="Path">
<path fill-rule="evenodd" clip-rule="evenodd" d="M20.824 6.15217L10.5946 11.6134L0.365234 6.15217C0.575266 5.8166 0.874777 5.53618 1.23529 5.33757L9.35168 1.01215C10.1232 0.610535 11.066 0.610535 11.8376 1.01215L19.9539 5.33757C20.3145 5.53618 20.614 5.8166 20.824 6.15217Z" fill="#8592A3"/>
<path fill-rule="evenodd" clip-rule="evenodd" d="M20.824 6.15217L10.5946 11.6134L0.365234 6.15217C0.575266 5.8166 0.874777 5.53618 1.23529 5.33757L9.35168 1.01215C10.1232 0.610535 11.066 0.610535 11.8376 1.01215L19.9539 5.33757C20.3145 5.53618 20.614 5.8166 20.824 6.15217Z" fill="white" fill-opacity="0.6"/>
</g>
<g id="Path_2">
<path fill-rule="evenodd" clip-rule="evenodd" d="M10.5943 11.6117V22.5113C10.2024 22.5108 9.81569 22.4284 9.46319 22.2703L1.27223 17.899C0.504447 17.489 0.0309748 16.7329 0.0292969 15.9141V7.30919C0.0313602 6.90272 0.146953 6.5036 0.36489 6.15039L10.5943 11.6117Z" fill="#8592A3"/>
<path fill-rule="evenodd" clip-rule="evenodd" d="M10.5943 11.6117V22.5113C10.2024 22.5108 9.81569 22.4284 9.46319 22.2703L1.27223 17.899C0.504447 17.489 0.0309748 16.7329 0.0292969 15.9141V7.30919C0.0313602 6.90272 0.146953 6.5036 0.36489 6.15039L10.5943 11.6117Z" fill="white" fill-opacity="0.4"/>
</g>
<path id="Path_3" fill-rule="evenodd" clip-rule="evenodd" d="M21.1587 7.30919V15.9141C21.157 16.7329 20.6836 17.489 19.9158 17.899L11.6875 22.2818C11.3453 22.4308 10.9721 22.5091 10.5938 22.5113V11.6117L20.8231 6.15039C21.0411 6.5036 21.1567 6.90272 21.1587 7.30919Z" fill="#8592A3"/>
</g>
</g>
</svg>
