<svg width="25" height="24" viewBox="0 0 25 24" fill="none" xmlns="http://www.w3.org/2000/svg">
<g id="alert-triangle">
<path id="Icon" d="M12.4998 8.00118V12.0012M12.4998 16.0012H12.5098M10.7898 2.86118L2.31978 17.0012C2.14514 17.3036 2.05274 17.6465 2.05177 17.9957C2.05079 18.3449 2.14127 18.6883 2.3142 18.9917C2.48714 19.2951 2.7365 19.5479 3.03748 19.725C3.33847 19.9021 3.68058 19.9973 4.02978 20.0012H20.9698C21.319 19.9973 21.6611 19.9021 21.9621 19.725C22.2631 19.5479 22.5124 19.2951 22.6854 18.9917C22.8583 18.6883 22.9488 18.3449 22.9478 17.9957C22.9468 17.6465 22.8544 17.3036 22.6798 17.0012L14.2098 2.86118C14.0315 2.56729 13.7805 2.3243 13.481 2.15567C13.1814 1.98703 12.8435 1.89844 12.4998 1.89844C12.156 1.89844 11.8181 1.98703 11.5186 2.15567C11.2191 2.3243 10.968 2.56729 10.7898 2.86118Z" stroke="#DC6803" stroke-width="2" stroke-linecap="round" stroke-linejoin="round"/>
</g>
</svg>
