<svg width="20" height="20" viewBox="0 0 20 20" fill="none" xmlns="http://www.w3.org/2000/svg">
<g id="vuesax/outline/maximize">
<g id="maximize">
<path id="Vector" d="M1.66602 8.1263C1.32435 8.1263 1.04102 7.84297 1.04102 7.5013V5.41797C1.04102 3.00964 3.00768 1.04297 5.41602 1.04297H7.49935C7.84102 1.04297 8.12435 1.3263 8.12435 1.66797C8.12435 2.00964 7.84102 2.29297 7.49935 2.29297H5.41602C3.69102 2.29297 2.29102 3.69297 2.29102 5.41797V7.5013C2.29102 7.84297 2.00768 8.1263 1.66602 8.1263Z" fill="#667085"/>
<path id="Vector_2" d="M18.3333 8.1263C17.9917 8.1263 17.7083 7.84297 17.7083 7.5013V5.41797C17.7083 3.69297 16.3083 2.29297 14.5833 2.29297H12.5C12.1583 2.29297 11.875 2.00964 11.875 1.66797C11.875 1.3263 12.1583 1.04297 12.5 1.04297H14.5833C16.9917 1.04297 18.9583 3.00964 18.9583 5.41797V7.5013C18.9583 7.84297 18.675 8.1263 18.3333 8.1263Z" fill="#667085"/>
<path id="Vector_3" d="M14.584 18.957H13.334C12.9923 18.957 12.709 18.6737 12.709 18.332C12.709 17.9904 12.9923 17.707 13.334 17.707H14.584C16.309 17.707 17.709 16.307 17.709 14.582V13.332C17.709 12.9904 17.9923 12.707 18.334 12.707C18.6757 12.707 18.959 12.9904 18.959 13.332V14.582C18.959 16.9904 16.9923 18.957 14.584 18.957Z" fill="#667085"/>
<path id="Vector_4" d="M7.49935 18.9583H5.41602C3.00768 18.9583 1.04102 16.9917 1.04102 14.5833V12.5C1.04102 12.1583 1.32435 11.875 1.66602 11.875C2.00768 11.875 2.29102 12.1583 2.29102 12.5V14.5833C2.29102 16.3083 3.69102 17.7083 5.41602 17.7083H7.49935C7.84102 17.7083 8.12435 17.9917 8.12435 18.3333C8.12435 18.675 7.84102 18.9583 7.49935 18.9583Z" fill="#667085"/>
<path id="Vector_5" d="M15 12.2904C14.6583 12.2904 14.375 12.007 14.375 11.6654V10.6237H5.625V11.6654C5.625 12.007 5.34167 12.2904 5 12.2904C4.65833 12.2904 4.375 12.007 4.375 11.6654V8.33203C4.375 7.99036 4.65833 7.70703 5 7.70703C5.34167 7.70703 5.625 7.99036 5.625 8.33203V9.3737H14.375V8.33203C14.375 7.99036 14.6583 7.70703 15 7.70703C15.3417 7.70703 15.625 7.99036 15.625 8.33203V11.6654C15.625 12.007 15.3417 12.2904 15 12.2904Z" fill="#667085"/>
<path id="Vector_6" d="M11.6673 15.625H8.33398C7.99232 15.625 7.70898 15.3417 7.70898 15C7.70898 14.6583 7.99232 14.375 8.33398 14.375H9.37565V5.625H8.33398C7.99232 5.625 7.70898 5.34167 7.70898 5C7.70898 4.65833 7.99232 4.375 8.33398 4.375H11.6673C12.009 4.375 12.2923 4.65833 12.2923 5C12.2923 5.34167 12.009 5.625 11.6673 5.625H10.6257V14.375H11.6673C12.009 14.375 12.2923 14.6583 12.2923 15C12.2923 15.3417 12.009 15.625 11.6673 15.625Z" fill="#667085"/>
</g>
</g>
</svg>
