<svg width="24" height="25" viewBox="0 0 24 25" fill="none" xmlns="http://www.w3.org/2000/svg">
<g id="vuesax/linear/image">
<g id="image">
<path id="Vector" d="M21.6809 17.2409L18.5509 9.93089C17.4909 7.45089 15.5409 7.35089 14.2309 9.71089L12.3409 13.1209C11.3809 14.8509 9.5909 15.0009 8.3509 13.4509L8.1309 13.1709C6.8409 11.5509 5.0209 11.7509 4.0909 13.6009L2.3709 17.0509C1.1609 19.4509 2.9109 22.2809 5.5909 22.2809H18.3509C20.9509 22.2809 22.7009 19.6309 21.6809 17.2409Z" stroke="#25A9E0" stroke-width="1.5" stroke-linecap="round" stroke-linejoin="round"/>
<path id="Vector_2" d="M6.9707 8.28125C8.62756 8.28125 9.9707 6.9381 9.9707 5.28125C9.9707 3.6244 8.62756 2.28125 6.9707 2.28125C5.31385 2.28125 3.9707 3.6244 3.9707 5.28125C3.9707 6.9381 5.31385 8.28125 6.9707 8.28125Z" stroke="#25A9E0" stroke-width="1.5" stroke-linecap="round" stroke-linejoin="round"/>
</g>
</g>
</svg>
