<svg width="24" height="24" viewBox="0 0 24 24" fill="none" xmlns="http://www.w3.org/2000/svg">
<path d="M19.77 13.25H15.73C14.7926 13.25 14.1962 13.0324 13.8319 12.6838C13.472 12.3393 13.25 11.7816 13.25 10.9V4.1C13.25 3.21977 13.4738 2.66169 13.8352 2.31668C14.2012 1.96734 14.7982 1.75 15.73 1.75H19.77C20.7074 1.75 21.3038 1.96763 21.6681 2.31624C22.028 2.6607 22.25 3.21844 22.25 4.1V10.9C22.25 11.7802 22.0262 12.3383 21.6648 12.6833C21.2988 13.0327 20.7018 13.25 19.77 13.25ZM15.73 2.25C15.0965 2.25 14.5298 2.3231 14.1602 2.6927C13.7869 3.06604 13.75 3.60876 13.75 4.1V10.9C13.75 11.3912 13.7869 11.934 14.1602 12.3073C14.5298 12.6769 15.0965 12.75 15.73 12.75H19.77C20.4035 12.75 20.9702 12.6769 21.3398 12.3073C21.7131 11.934 21.75 11.3912 21.75 10.9V4.1C21.75 3.60876 21.7131 3.06604 21.3398 2.6927C20.9702 2.3231 20.4035 2.25 19.77 2.25H15.73Z" fill="white" stroke="white"/>
<path d="M19.77 22.25H15.73C14.7926 22.25 14.1962 22.0324 13.8319 21.6838C13.472 21.3393 13.25 20.7816 13.25 19.9V18.1C13.25 17.2198 13.4738 16.6617 13.8352 16.3167C14.2012 15.9673 14.7982 15.75 15.73 15.75H19.77C20.7074 15.75 21.3038 15.9676 21.6681 16.3162C22.028 16.6607 22.25 17.2184 22.25 18.1V19.9C22.25 20.7802 22.0262 21.3383 21.6648 21.6833C21.2988 22.0327 20.7018 22.25 19.77 22.25ZM15.73 16.25C15.0965 16.25 14.5298 16.3231 14.1602 16.6927C13.7869 17.066 13.75 17.6088 13.75 18.1V19.9C13.75 20.3912 13.7869 20.934 14.1602 21.3073C14.5298 21.6769 15.0965 21.75 15.73 21.75H19.77C20.4035 21.75 20.9702 21.6769 21.3398 21.3073C21.7131 20.934 21.75 20.3912 21.75 19.9V18.1C21.75 17.6088 21.7131 17.066 21.3398 16.6927C20.9702 16.3231 20.4035 16.25 19.77 16.25H15.73Z" fill="white" stroke="white"/>
<path d="M8.27 22.25H4.23C3.2926 22.25 2.69623 22.0324 2.33194 21.6838C1.97199 21.3393 1.75 20.7816 1.75 19.9V13.1C1.75 12.2198 1.9738 11.6617 2.33524 11.3167C2.70121 10.9673 3.29823 10.75 4.23 10.75H8.27C9.2074 10.75 9.80377 10.9676 10.1681 11.3162C10.528 11.6607 10.75 12.2184 10.75 13.1V19.9C10.75 20.7802 10.5262 21.3383 10.1648 21.6833C9.79879 22.0327 9.20177 22.25 8.27 22.25ZM4.23 11.25C3.59647 11.25 3.02979 11.3231 2.6602 11.6927C2.28685 12.066 2.25 12.6088 2.25 13.1V19.9C2.25 20.3912 2.28685 20.934 2.6602 21.3073C3.02979 21.6769 3.59647 21.75 4.23 21.75H8.27C8.90353 21.75 9.47021 21.6769 9.8398 21.3073C10.2131 20.934 10.25 20.3912 10.25 19.9V13.1C10.25 12.6088 10.2131 12.066 9.8398 11.6927C9.47021 11.3231 8.90353 11.25 8.27 11.25H4.23Z" fill="white" stroke="white"/>
<path d="M8.27 8.25H4.23C3.2926 8.25 2.69623 8.03237 2.33194 7.68376C1.97199 7.3393 1.75 6.78156 1.75 5.9V4.1C1.75 3.21977 1.9738 2.66169 2.33524 2.31668C2.70121 1.96734 3.29823 1.75 4.23 1.75H8.27C9.2074 1.75 9.80377 1.96763 10.1681 2.31624C10.528 2.6607 10.75 3.21844 10.75 4.1V5.9C10.75 6.78023 10.5262 7.33831 10.1648 7.68332C9.79879 8.03266 9.20177 8.25 8.27 8.25ZM4.23 2.25C3.59647 2.25 3.02979 2.3231 2.6602 2.6927C2.28685 3.06604 2.25 3.60876 2.25 4.1V5.9C2.25 6.39124 2.28685 6.93396 2.6602 7.3073C3.02979 7.6769 3.59647 7.75 4.23 7.75H8.27C8.90353 7.75 9.47021 7.6769 9.8398 7.3073C10.2131 6.93396 10.25 6.39123 10.25 5.9V4.1C10.25 3.60876 10.2131 3.06604 9.8398 2.6927C9.47021 2.3231 8.90353 2.25 8.27 2.25H4.23Z" fill="white" stroke="white"/>
</svg>
