<svg width="20" height="20" viewBox="0 0 20 20" fill="none" xmlns="http://www.w3.org/2000/svg">
<path d="M9.1667 1.66797H7.50003C3.33336 1.66797 1.66669 3.33464 1.66669 7.50131V12.5013C1.66669 16.668 3.33336 18.3347 7.50003 18.3347H12.5C16.6667 18.3347 18.3334 16.668 18.3334 12.5013V10.8346" stroke="white" stroke-width="1.5" stroke-linecap="round" stroke-linejoin="round"/>
<path d="M13.3667 2.51639L6.80002 9.08306C6.55002 9.33306 6.30002 9.82473 6.25002 10.1831L5.89169 12.6914C5.75835 13.5997 6.40002 14.2331 7.30836 14.1081L9.81669 13.7497C10.1667 13.6997 10.6584 13.4497 10.9167 13.1997L17.4834 6.63306C18.6167 5.49973 19.15 4.18306 17.4834 2.51639C15.8167 0.849722 14.5 1.38306 13.3667 2.51639Z" stroke="white" stroke-width="1.5" stroke-miterlimit="10" stroke-linecap="round" stroke-linejoin="round"/>
<path d="M12.425 3.45703C12.9833 5.4487 14.5417 7.00703 16.5417 7.5737" stroke="white" stroke-width="1.5" stroke-miterlimit="10" stroke-linecap="round" stroke-linejoin="round"/>
</svg>
