<svg width="20" height="21" viewBox="0 0 20 21" fill="none" xmlns="http://www.w3.org/2000/svg">
<g id="vuesax/outline/sms-tracking">
<g id="sms-tracking">
<path id="Vector" d="M14.166 18.2057H5.83268C5.49102 18.2057 5.20768 17.9224 5.20768 17.5807C5.20768 17.2391 5.49102 16.9557 5.83268 16.9557H14.166C16.5493 16.9557 17.7077 15.7974 17.7077 13.4141V7.58073C17.7077 5.1974 16.5493 4.03906 14.166 4.03906H5.83268C3.44935 4.03906 2.29102 5.1974 2.29102 7.58073C2.29102 7.9224 2.00768 8.20573 1.66602 8.20573C1.32435 8.20573 1.04102 7.9224 1.04102 7.58073C1.04102 4.53906 2.79102 2.78906 5.83268 2.78906H14.166C17.2077 2.78906 18.9577 4.53906 18.9577 7.58073V13.4141C18.9577 16.4557 17.2077 18.2057 14.166 18.2057Z" fill="#667085"/>
<path id="Vector_2" d="M9.99998 11.2259C9.29998 11.2259 8.59165 11.0093 8.04998 10.5676L5.44164 8.48429C5.17498 8.26762 5.12498 7.87595 5.34165 7.60928C5.55831 7.34262 5.94997 7.29262 6.21664 7.50929L8.82497 9.59262C9.45831 10.101 10.5333 10.101 11.1666 9.59262L13.775 7.50929C14.0416 7.29262 14.4416 7.33428 14.65 7.60928C14.8666 7.87595 14.825 8.27595 14.55 8.48429L11.9416 10.5676C11.4083 11.0093 10.7 11.2259 9.99998 11.2259Z" fill="#667085"/>
<path id="Vector_3" d="M6.66699 14.875H1.66699C1.32533 14.875 1.04199 14.5917 1.04199 14.25C1.04199 13.9083 1.32533 13.625 1.66699 13.625H6.66699C7.00866 13.625 7.29199 13.9083 7.29199 14.25C7.29199 14.5917 7.00866 14.875 6.66699 14.875Z" fill="#667085"/>
<path id="Vector_4" d="M4.16602 11.5391H1.66602C1.32435 11.5391 1.04102 11.2557 1.04102 10.9141C1.04102 10.5724 1.32435 10.2891 1.66602 10.2891H4.16602C4.50768 10.2891 4.79102 10.5724 4.79102 10.9141C4.79102 11.2557 4.50768 11.5391 4.16602 11.5391Z" fill="#667085"/>
</g>
</g>
</svg>
