<svg width="24" height="24" viewBox="0 0 24 24" fill="none" xmlns="http://www.w3.org/2000/svg">
<g id="flame 1" clip-path="url(#clip0_992_69804)">
<path id="Vector" d="M15.477 18.609C15.477 17.326 14.669 16.58 13.1199 15.265C12.7699 14.965 12.3919 14.647 12.0019 14.293C11.5569 14.702 11.1339 15.062 10.7459 15.393C9.19995 16.699 8.52295 17.338 8.52295 18.609C8.52295 19.5311 8.88927 20.4155 9.54134 21.0676C10.1934 21.7196 11.0778 22.086 11.9999 22.086C12.9221 22.086 13.8065 21.7196 14.4586 21.0676C15.1106 20.4155 15.477 19.5311 15.477 18.609Z" fill="#F04438"/>
<path id="Vector_2" d="M16.408 4.035C15.208 3.016 13.968 1.963 12.714 0.71L12 0L11.3 0.711C9.046 2.973 7.98 6.447 7.518 8.531C7.16348 7.98206 6.9004 7.37922 6.739 6.746L6.312 5.109L5.079 6.266C2.92 8.294 1.479 10.305 1.479 13.525C1.45824 15.8485 2.21456 18.1123 3.62779 19.9568C5.04102 21.8012 7.0301 23.1205 9.279 23.705C9.84408 23.8482 10.4195 23.9468 11 24C9.74128 23.7654 8.6041 23.0983 7.78513 22.1141C6.96615 21.1299 6.51688 19.8904 6.515 18.61C6.515 16.36 7.872 15.21 9.443 13.868C10.004 13.391 10.643 12.85 11.288 12.201L12 11.493L12.708 12.201C13.284 12.777 13.86 13.265 14.417 13.739C15.993 15.076 17.481 16.339 17.481 18.61C17.4794 19.8853 17.0337 21.1203 16.2206 22.1028C15.4074 23.0853 14.2776 23.754 13.025 23.994C15.6256 23.7417 18.0389 22.5298 19.7943 20.5946C21.5498 18.6594 22.5215 16.1398 22.52 13.527C22.52 9.225 19.687 6.82 16.408 4.035Z" fill="#F04438"/>
</g>
<defs>
<clipPath id="clip0_992_69804">
<rect width="24" height="24" fill="white"/>
</clipPath>
</defs>
</svg>
