<svg width="24" height="24" viewBox="0 0 24 24" fill="none" xmlns="http://www.w3.org/2000/svg">
<path d="M18 7.16C17.94 7.15 17.87 7.15 17.81 7.16C16.43 7.11 15.33 5.98 15.33 4.58C15.33 3.15 16.48 2 17.91 2C19.34 2 20.49 3.16 20.49 4.58C20.48 5.98 19.38 7.11 18 7.16Z" stroke="#101828" stroke-width="1.5" stroke-linecap="round" stroke-linejoin="round"/>
<path d="M16.9693 14.4402C18.3393 14.6702 19.8493 14.4302 20.9093 13.7202C22.3193 12.7802 22.3193 11.2402 20.9093 10.3002C19.8393 9.59016 18.3093 9.35016 16.9393 9.59016" stroke="#101828" stroke-width="1.5" stroke-linecap="round" stroke-linejoin="round"/>
<path d="M5.96852 7.16C6.02852 7.15 6.09852 7.15 6.15852 7.16C7.53852 7.11 8.63852 5.98 8.63852 4.58C8.63852 3.15 7.48852 2 6.05852 2C4.62852 2 3.47852 3.16 3.47852 4.58C3.48852 5.98 4.58852 7.11 5.96852 7.16Z" stroke="#101828" stroke-width="1.5" stroke-linecap="round" stroke-linejoin="round"/>
<path d="M6.99945 14.4402C5.62945 14.6702 4.11945 14.4302 3.05945 13.7202C1.64945 12.7802 1.64945 11.2402 3.05945 10.3002C4.12945 9.59016 5.65945 9.35016 7.02945 9.59016" stroke="#101828" stroke-width="1.5" stroke-linecap="round" stroke-linejoin="round"/>
<path d="M12.0001 14.6288C11.9401 14.6188 11.8701 14.6188 11.8101 14.6288C10.4301 14.5788 9.33008 13.4488 9.33008 12.0488C9.33008 10.6188 10.4801 9.46875 11.9101 9.46875C13.3401 9.46875 14.4901 10.6288 14.4901 12.0488C14.4801 13.4488 13.3801 14.5888 12.0001 14.6288Z" stroke="#101828" stroke-width="1.5" stroke-linecap="round" stroke-linejoin="round"/>
<path d="M9.0907 17.7794C7.6807 18.7194 7.6807 20.2594 9.0907 21.1994C10.6907 22.2694 13.3107 22.2694 14.9107 21.1994C16.3207 20.2594 16.3207 18.7194 14.9107 17.7794C13.3207 16.7194 10.6907 16.7194 9.0907 17.7794Z" stroke="#101828" stroke-width="1.5" stroke-linecap="round" stroke-linejoin="round"/>
</svg>
