<svg width="20" height="20" viewBox="0 0 20 20" fill="none" xmlns="http://www.w3.org/2000/svg">
<g id="solar:history-broken">
<g id="Group">
<path id="Vector" d="M10 6.66992V10.0033L12.0833 12.0866" stroke="#104960" stroke-width="1.25" stroke-linecap="round" stroke-linejoin="round"/>
<path id="Vector_2" d="M3.615 5.72646L2.99 5.72896C2.99066 5.89371 3.05634 6.05154 3.17276 6.16812C3.28918 6.28469 3.44692 6.35059 3.61167 6.35146L3.615 5.72646ZM5.73333 6.36146C5.81541 6.36185 5.89676 6.34606 5.97273 6.315C6.04871 6.28395 6.11782 6.23823 6.17613 6.18047C6.23444 6.1227 6.2808 6.05402 6.31256 5.97833C6.34432 5.90265 6.36087 5.82146 6.36125 5.73938C6.36163 5.6573 6.34585 5.57596 6.31479 5.49998C6.28374 5.42401 6.23802 5.35489 6.18025 5.29658C6.12249 5.23828 6.0538 5.19192 5.97812 5.16015C5.90244 5.12839 5.82124 5.11185 5.73917 5.11146L5.73333 6.36146ZM4.22917 3.60146C4.22828 3.4357 4.16159 3.27708 4.04375 3.1605C3.92592 3.04391 3.76659 2.97891 3.60083 2.9798C3.43507 2.98068 3.27645 3.04738 3.15987 3.16521C3.04328 3.28305 2.97828 3.44237 2.97917 3.60813L4.22917 3.60146ZM3.125 10.0006C3.125 9.83487 3.05915 9.6759 2.94194 9.55869C2.82473 9.44148 2.66576 9.37563 2.5 9.37563C2.33424 9.37563 2.17527 9.44148 2.05806 9.55869C1.94085 9.6759 1.875 9.83487 1.875 10.0006H3.125ZM14.0625 17.0381C14.1366 16.9987 14.2019 16.9448 14.2547 16.8795C14.3074 16.8143 14.3465 16.7391 14.3696 16.6585C14.3927 16.5778 14.3993 16.4933 14.389 16.41C14.3788 16.3268 14.3519 16.2464 14.3099 16.1738C14.2679 16.1011 14.2117 16.0377 14.1447 15.9872C14.0777 15.9367 14.0012 15.9003 13.9198 15.88C13.8384 15.8597 13.7537 15.856 13.6709 15.8692C13.588 15.8823 13.5086 15.912 13.4375 15.9565L14.0625 17.0381ZM15.9558 13.4381C15.9114 13.5093 15.8817 13.5886 15.8686 13.6715C15.8554 13.7544 15.8591 13.839 15.8794 13.9204C15.8997 14.0018 15.9361 14.0783 15.9866 14.1454C16.0371 14.2124 16.1005 14.2685 16.1732 14.3105C16.2458 14.3525 16.3261 14.3794 16.4094 14.3897C16.4927 14.3999 16.5772 14.3933 16.6578 14.3702C16.7385 14.3471 16.8137 14.3081 16.8789 14.2553C16.9441 14.2025 16.9981 14.1372 17.0375 14.0631L15.9558 13.4381ZM4.28333 4.22563C4.16553 4.34232 4.09891 4.50104 4.09813 4.66685C4.09735 4.83266 4.16247 4.992 4.27917 5.1098C4.39586 5.2276 4.55457 5.29422 4.72039 5.295C4.8862 5.29578 5.04553 5.23066 5.16333 5.11396L4.28333 4.22563ZM15.7183 4.28146C12.535 1.09813 7.39083 1.06646 4.22833 4.22896L5.11167 5.11146C7.77833 2.44563 12.1308 2.46146 14.835 5.16563L15.7183 4.28146ZM4.22833 4.22896L3.17333 5.28396L4.05667 6.1673L5.1125 5.11313L4.22833 4.22896ZM3.61167 6.35146L5.73333 6.36146L5.73917 5.11146L3.61833 5.10146L3.61167 6.35146ZM4.24 5.72313L4.22917 3.60146L2.97917 3.60813L2.99 5.72896L4.24 5.72313ZM10 3.12563C11.8234 3.12563 13.572 3.84996 14.8614 5.13927C16.1507 6.42858 16.875 8.17727 16.875 10.0006H18.125C18.125 7.84575 17.269 5.77912 15.7452 4.25539C14.2215 2.73165 12.1549 1.87563 10 1.87563V3.12563ZM10 16.8756C8.17664 16.8756 6.42795 16.1513 5.13864 14.862C3.84933 13.5727 3.125 11.824 3.125 10.0006H1.875C1.875 12.1555 2.73102 14.2221 4.25476 15.7459C5.77849 17.2696 7.84512 18.1256 10 18.1256V16.8756ZM13.4375 15.9565C12.3928 16.5607 11.2069 16.8778 10 16.8756V18.1256C11.4792 18.1256 12.8667 17.7298 14.0625 17.0381L13.4375 15.9565ZM16.875 10.0006C16.8772 11.2075 16.5601 12.3934 15.9558 13.4381L17.0375 14.0631C17.7518 12.8285 18.127 11.427 18.125 10.0006H16.875ZM5.16333 5.11396C6.44909 3.83742 8.18817 3.12303 10 3.12563V1.87563C7.85863 1.87287 5.80328 2.71725 4.28333 4.22563L5.16333 5.11396Z" fill="#104960"/>
</g>
</g>
</svg>
