<svg width="20" height="21" viewBox="0 0 20 21" fill="none" xmlns="http://www.w3.org/2000/svg">
<g id="vuesax/outline/call-calling">
<g id="call-calling">
<path id="Vector" d="M14.5417 19.4596C13.6 19.4596 12.6083 19.2346 11.5833 18.8013C10.5833 18.3763 9.57499 17.793 8.59166 17.0846C7.61666 16.368 6.67499 15.568 5.78332 14.693C4.89999 13.8013 4.09999 12.8596 3.39166 11.893C2.67499 10.893 2.09999 9.89297 1.69166 8.9263C1.25832 7.89297 1.04166 6.89297 1.04166 5.9513C1.04166 5.3013 1.15832 4.68464 1.38332 4.10964C1.61666 3.51797 1.99166 2.96797 2.49999 2.49297C3.14166 1.85964 3.87499 1.54297 4.65832 1.54297C4.98332 1.54297 5.31666 1.61797 5.59999 1.7513C5.92499 1.9013 6.19999 2.1263 6.39999 2.4263L8.33332 5.1513C8.50832 5.39297 8.64166 5.6263 8.73332 5.85964C8.84166 6.10964 8.89999 6.35964 8.89999 6.6013C8.89999 6.91797 8.80832 7.2263 8.63332 7.51797C8.50832 7.74297 8.31666 7.98464 8.07499 8.2263L7.50832 8.81797C7.51666 8.84297 7.52499 8.85964 7.53332 8.8763C7.63332 9.0513 7.83332 9.3513 8.21666 9.8013C8.62499 10.268 9.00832 10.693 9.39166 11.0846C9.88332 11.568 10.2917 11.9513 10.675 12.268C11.15 12.668 11.4583 12.868 11.6417 12.9596L11.625 13.0013L12.2333 12.4013C12.4917 12.143 12.7417 11.9513 12.9833 11.8263C13.4417 11.543 14.025 11.493 14.6083 11.7346C14.825 11.8263 15.0583 11.9513 15.3083 12.1263L18.075 14.093C18.3833 14.3013 18.6083 14.568 18.7417 14.8846C18.8667 15.2013 18.925 15.493 18.925 15.7846C18.925 16.1846 18.8333 16.5846 18.6583 16.9596C18.4833 17.3346 18.2667 17.6596 17.9917 17.9596C17.5167 18.4846 17 18.8596 16.4 19.1013C15.825 19.3346 15.2 19.4596 14.5417 19.4596ZM4.65832 2.79297C4.19999 2.79297 3.77499 2.99297 3.36666 3.39297C2.98332 3.7513 2.71666 4.14297 2.54999 4.56797C2.37499 5.0013 2.29166 5.45964 2.29166 5.9513C2.29166 6.7263 2.47499 7.56797 2.84166 8.43464C3.21666 9.31797 3.74166 10.2346 4.40832 11.1513C5.07499 12.068 5.83332 12.9596 6.66666 13.8013C7.49999 14.6263 8.39999 15.393 9.32499 16.068C10.225 16.7263 11.15 17.2596 12.0667 17.643C13.4917 18.2513 14.825 18.393 15.925 17.9346C16.35 17.7596 16.725 17.493 17.0667 17.1096C17.2583 16.9013 17.4083 16.6763 17.5333 16.4096C17.6333 16.2013 17.6833 15.9846 17.6833 15.768C17.6833 15.6346 17.6583 15.5013 17.5917 15.3513C17.5667 15.3013 17.5167 15.2096 17.3583 15.1013L14.5917 13.1346C14.425 13.018 14.275 12.9346 14.1333 12.8763C13.95 12.8013 13.875 12.7263 13.5917 12.9013C13.425 12.9846 13.275 13.1096 13.1083 13.2763L12.475 13.9013C12.15 14.218 11.65 14.293 11.2667 14.1513L11.0417 14.0513C10.7 13.868 10.3 13.5846 9.85832 13.2096C9.45832 12.868 9.02499 12.468 8.49999 11.9513C8.09166 11.5346 7.68332 11.093 7.25832 10.6013C6.86666 10.143 6.58332 9.7513 6.40832 9.4263L6.30832 9.1763C6.25832 8.98463 6.24166 8.8763 6.24166 8.75963C6.24166 8.45964 6.34999 8.19297 6.55832 7.98463L7.18332 7.33464C7.34999 7.16797 7.47499 7.00963 7.55832 6.86797C7.62499 6.75963 7.64999 6.66797 7.64999 6.58464C7.64999 6.51797 7.62499 6.41797 7.58332 6.31797C7.52499 6.18464 7.43332 6.03464 7.31666 5.8763L5.38332 3.14297C5.29999 3.0263 5.19999 2.94297 5.07499 2.88464C4.94166 2.8263 4.79999 2.79297 4.65832 2.79297ZM11.625 13.0096L11.4917 13.5763L11.7167 12.993C11.675 12.9846 11.6417 12.993 11.625 13.0096Z" fill="#667085"/>
<path id="Vector_2" d="M15.4167 8.6237C15.075 8.6237 14.7917 8.34036 14.7917 7.9987C14.7917 7.6987 14.4917 7.0737 13.9917 6.54036C13.5 6.01536 12.9583 5.70703 12.5 5.70703C12.1583 5.70703 11.875 5.4237 11.875 5.08203C11.875 4.74036 12.1583 4.45703 12.5 4.45703C13.3083 4.45703 14.1583 4.89036 14.9 5.68203C15.5917 6.4237 16.0417 7.33203 16.0417 7.9987C16.0417 8.34036 15.7583 8.6237 15.4167 8.6237Z" fill="#667085"/>
<path id="Vector_3" d="M18.3333 8.6263C17.9917 8.6263 17.7083 8.34297 17.7083 8.0013C17.7083 5.1263 15.375 2.79297 12.5 2.79297C12.1583 2.79297 11.875 2.50964 11.875 2.16797C11.875 1.8263 12.1583 1.54297 12.5 1.54297C16.0583 1.54297 18.9583 4.44297 18.9583 8.0013C18.9583 8.34297 18.675 8.6263 18.3333 8.6263Z" fill="#667085"/>
</g>
</g>
</svg>
