<svg width="14" height="20" viewBox="0 0 14 20" fill="none" xmlns="http://www.w3.org/2000/svg">
<path fill-rule="evenodd" clip-rule="evenodd" d="M13 7.2H8.42437L11.152 0.8364C11.1911 0.745097 11.207 0.645503 11.1981 0.546559C11.1893 0.447615 11.156 0.352415 11.1013 0.269505C11.0466 0.186594 10.9721 0.118567 10.8846 0.0715284C10.7971 0.0244898 10.6993 -8.81476e-05 10.6 2.3754e-07H4.59997C4.48246 -0.00010427 4.36751 0.0342967 4.26938 0.0989341C4.17125 0.163572 4.09426 0.2556 4.04797 0.3636L0.447967 8.7636C0.408827 8.8549 0.39297 8.9545 0.401818 9.05344C0.410666 9.15239 0.443942 9.24759 0.498661 9.3305C0.553379 9.41341 0.627828 9.48143 0.715324 9.52847C0.802821 9.57551 0.900628 9.60009 0.999967 9.6H3.96877L0.443167 18.3768C0.203167 18.9732 0.943567 19.4784 1.41157 19.0368L7.44037 13.3452L13.39 8.256C13.4832 8.17628 13.5497 8.06991 13.5806 7.95121C13.6116 7.83251 13.6053 7.70719 13.5629 7.59213C13.5204 7.47707 13.4436 7.3778 13.343 7.30769C13.2423 7.23757 13.1226 7.19999 13 7.2ZM7.51477 8.4H11.3752L6.63757 12.4536L2.57557 16.2876L5.41357 9.2232C5.45005 9.13216 5.46366 9.03358 5.45321 8.93606C5.44276 8.83855 5.40856 8.74508 5.35362 8.66384C5.29867 8.58261 5.22465 8.51608 5.13803 8.47008C5.05141 8.42409 4.95484 8.40002 4.85677 8.4H1.90957L4.99597 1.2H9.69037L6.96277 7.5636C6.92363 7.6549 6.90777 7.7545 6.91662 7.85344C6.92547 7.95239 6.95874 8.04758 7.01346 8.1305C7.06818 8.21341 7.14263 8.28143 7.23012 8.32847C7.31762 8.37551 7.41543 8.40009 7.51477 8.4Z" fill="black"/>
</svg>
