<svg width="20" height="20" viewBox="0 0 20 20" fill="none" xmlns="http://www.w3.org/2000/svg">
<path d="M4.09276 19.0179C3.18443 19.0179 2.40943 18.7263 1.84276 18.1596C1.03443 17.3513 0.784427 16.1179 1.14276 14.6846L3.20943 6.40961C3.56776 4.97627 4.96776 3.58461 6.39276 3.22627L14.6678 1.15961C16.1011 0.801273 17.3344 1.05127 18.1428 1.85961C18.9511 2.66794 19.2011 3.90127 18.8428 5.33461L16.7761 13.6096C16.4178 15.0429 15.0178 16.4346 13.5928 16.7929L5.31776 18.8596C4.89276 18.9596 4.48443 19.0179 4.09276 19.0179ZM14.9844 2.35961L6.70943 4.43461C5.73443 4.67627 4.67609 5.73461 4.42609 6.70961L2.35943 14.9846C2.10943 15.9763 2.24276 16.7846 2.72609 17.2763C3.20943 17.7596 4.02609 17.8929 5.01776 17.6429L13.2928 15.5763C14.2678 15.3346 15.3261 14.2679 15.5678 13.3013L17.6344 5.02627C17.8844 4.03461 17.7511 3.22627 17.2678 2.73461C16.7844 2.24294 15.9761 2.11794 14.9844 2.35961Z" fill="#101828"/>
<path d="M9.99992 13.5404C8.04992 13.5404 6.45825 11.9487 6.45825 9.9987C6.45825 8.0487 8.04992 6.45703 9.99992 6.45703C11.9499 6.45703 13.5416 8.0487 13.5416 9.9987C13.5416 11.9487 11.9499 13.5404 9.99992 13.5404ZM9.99992 7.70703C8.73325 7.70703 7.70825 8.73203 7.70825 9.9987C7.70825 11.2654 8.73325 12.2904 9.99992 12.2904C11.2666 12.2904 12.2916 11.2654 12.2916 9.9987C12.2916 8.73203 11.2666 7.70703 9.99992 7.70703Z" fill="#101828"/>
</svg>
